<svg viewBox="0 0 3840 2160" xmlns="http://www.w3.org/2000/svg" fill-rule="evenodd" clip-rule="evenodd" stroke-linecap="round" stroke-miterlimit="10"><path d="M2805.78 645.605l618.86-.781c32.8-.042 59.27 38.304 59.12 85.645l-2.23 698.151c-.15 47.34-26.87 85.75-59.67 85.79l-610.38.77" fill="none" stroke="#c3996b" stroke-width="25"/><path fill="#c3996b" d="M1009.37 633.051H2880.6v24.972H1009.37z"/><path d="M1032.58 1515.08H413.719c-32.804 0-59.398-38.38-59.398-85.72V731.223c0-47.341 26.594-85.719 59.398-85.719h610.391" fill="none" stroke="#c3996b" stroke-width="25" stroke-linejoin="round" stroke-miterlimit="25"/><g fill="#c3996b" fill-rule="nonzero"><path d="M1350.24 1541.81c0 3.74-.11 7.11-.34 10.13-.23 3.02-.65 5.78-1.25 8.28-.61 2.5-1.25 4.7-1.94 6.6-.69 1.9-1.67 3.58-2.93 5.05-1.27 1.46-2.52 2.71-3.76 3.75-1.23 1.03-2.84 1.91-4.83 2.63a50.24 50.24 0 01-5.73 1.72c-1.84.43-4.14.77-6.9 1-2.76.23-5.39.38-7.9.47-2.5.09-5.56.13-9.18.13-6.84 0-12.58-.2-17.21-.6-4.63-.41-8.57-1.27-11.82-2.59-3.24-1.32-5.76-2.69-7.54-4.1-1.79-1.41-3.19-3.65-4.23-6.73-1.03-3.07-1.71-6.02-2.03-8.84-.31-2.82-.58-6.81-.81-11.99l15.95-2.58c.17 1.26.35 3.04.52 5.34.34 3.57.68 6.08.99 7.55.32 1.47.94 3.09 1.85 4.87.93 1.79 2.36 2.95 4.32 3.5 1.95.54 4.51 1.02 7.67 1.42 3.17.4 7.39.6 12.68.6 4.37 0 7.97-.11 10.79-.34 2.81-.23 5.28-.7 7.41-1.42s3.74-1.54 4.83-2.46c1.09-.92 1.97-2.35 2.63-4.27a24.73 24.73 0 001.25-6c.18-2.07.23-4.83.18-8.28-.06-7.59-.48-12.83-1.25-15.74-.78-2.9-2.43-4.61-4.96-5.13l-42.96-7.5c-7.47-1.27-12.68-4.12-15.61-8.54-2.93-4.43-4.48-11.59-4.66-21.48 0-5.29.28-9.82.82-13.58.55-3.77 1.5-7.08 2.85-9.92 1.35-2.85 3.02-5.14 5-6.86 1.99-1.73 4.6-3.12 7.85-4.18 3.25-1.07 6.82-1.79 10.7-2.16 3.88-.37 8.64-.56 14.27-.56 4.6 0 8.55.1 11.86.3 3.31.2 6.53.56 9.66 1.08 3.14.52 5.74 1.24 7.81 2.16 2.07.92 3.98 2.11 5.73 3.58 1.76 1.46 3.12 3.24 4.1 5.34.98 2.1 1.73 4.56 2.24 7.38.52 2.81.78 6.06.78 9.74l-15.35 3.54c-.58-6.32-.95-9.92-1.13-10.78-.69-2.93-2.32-4.92-4.91-5.95-2.88-1.21-8.89-1.81-18.03-1.81-5 0-9.13.14-12.38.43-3.24.29-5.9.7-7.97 1.25-2.07.55-3.61 1.36-4.62 2.46-1 1.09-1.68 2.25-2.03 3.49-.34 1.24-.51 2.86-.51 4.87v14.93c0 5.4 2.35 8.51 7.07 9.31l30.88 5.26c2.87.46 5.17.86 6.9 1.21 1.72.34 3.71.8 5.95 1.38 2.24.57 4 1.18 5.26 1.81 1.27.63 2.67 1.44 4.23 2.41 1.55.98 2.76 2.07 3.62 3.28.86 1.21 1.74 2.65 2.63 4.32.89 1.66 1.55 3.55 1.98 5.64.43 2.1.8 4.49 1.08 7.16.29 2.68.43 5.68.43 9.02zM1438.63 1581.57c-5 0-9.44-.12-13.32-.35-3.88-.23-7.46-.79-10.74-1.68-3.28-.89-6.08-1.71-8.41-2.46-2.33-.74-4.43-2.17-6.3-4.26-1.86-2.1-3.4-3.92-4.61-5.44-1.21-1.52-2.24-4.05-3.11-7.59-.86-3.54-1.49-6.55-1.89-9.06-.4-2.5-.74-6.36-.99-11.6-.26-5.23-.41-9.71-.44-13.45-.02-3.74-.04-9.14-.04-16.22 0-8.51.23-15.58.69-21.22.46-5.63 1.37-10.86 2.72-15.69s3.13-8.63 5.35-11.39c2.21-2.76 5.23-5.13 9.05-7.11 3.83-1.99 8.28-3.34 13.37-4.06 5.09-.72 11.32-1.08 18.67-1.08 6.96 0 12.91.35 17.86 1.04 4.94.69 9.33 1.91 13.15 3.66 3.83 1.76 6.9 3.94 9.23 6.56 2.33 2.62 4.24 6.05 5.74 10.31 1.49 4.25 2.51 9.01 3.06 14.27.54 5.26.82 11.66.82 19.19 0 21.28-.32 35.28-.95 42.01-1.09 11.5-3.74 19.72-7.93 24.67-4.43 5.28-11.97 8.62-22.6 10-5.06.63-11.19.95-18.38.95zm12.34-119.03c-3.28-.23-7.39-.34-12.34-.34-4.94 0-9.05.11-12.33.34-3.28.23-6.14.72-8.58 1.47-2.44.75-4.33 1.58-5.65 2.5-1.32.92-2.4 2.34-3.23 4.27-.84 1.92-1.39 3.89-1.64 5.91-.26 2.01-.45 4.74-.57 8.19-.17 10.64-.25 21.33-.25 32.09 0 16.21.43 27.31 1.29 33.29 1.38 8.97 4 14.14 7.85 15.53 2.87 1.66 10.58 2.5 23.11 2.5 12.54 0 20.25-.84 23.12-2.5 1.09-.41 2.09-1.07 2.98-1.99.89-.92 1.64-2.16 2.24-3.71.6-1.55 1.13-3.12 1.59-4.7.46-1.58.84-3.61 1.13-6.08.28-2.47.51-4.7.69-6.68.17-1.99.28-4.52.34-7.59.06-3.08.1-5.62.13-7.64.03-2.01.04-4.68.04-8.02 0-11.61-.08-23.11-.26-34.5-.11-3.45-.3-6.18-.56-8.19-.25-2.02-.8-3.99-1.64-5.91-.83-1.93-1.91-3.35-3.23-4.27-1.32-.92-3.2-1.75-5.65-2.5-2.44-.75-5.3-1.24-8.58-1.47zM1602.84 1464.27h-53.04v41.91h45.19v13.98h-45.19v59.34h-17.51v-128.52h68.83l1.72 13.29zM1709.43 1464.27h-33.55v115.23h-17.51v-115.23h-32.86v-13.29h83.92v13.29zM1872.95 1450.98l-27.26 128.52h-18.71l-24.5-101.17-24.32 101.17h-18.63l-28.29-128.52h18.45l20.19 104.45 24.58-104.45h17.34l25.27 104.45 19.66-104.45h16.22zM1996.53 1579.5h-17.77l-9.74-32.86h-47.53l-9.4 32.86h-16.82l39.42-128.52h23.37l38.47 128.52zm-31.14-45.28l-10.86-38.56-8.97-31.57c-3.34 11.91-6.27 22.14-8.8 30.71l-11.56 39.42h40.19zM2121.67 1486.35c0 10.98-2.07 19.13-6.21 24.45-4.14 5.32-9.92 8.58-17.34 9.79 11.04 2.24 17.6 9.26 19.66 21.04l6.65 37.87h-18.72c-.46-2.65-.99-6.48-1.6-11.51-.6-5.04-1.16-9.29-1.68-12.77-.52-3.48-1.21-7.17-2.07-11.08-.86-3.91-2-7.19-3.41-9.84-1.4-2.64-3.09-4.6-5.04-5.86-3.11-1.32-8.19-1.99-15.27-1.99h-26.65v53.05h-17.42v-128.52h39.24c4.14 0 7.66.05 10.57.13 2.9.09 5.96.28 9.18.56 3.22.29 5.93.69 8.11 1.21 2.19.52 4.42 1.21 6.69 2.07 2.27.86 4.14 1.93 5.6 3.19 1.47 1.27 2.86 2.78 4.19 4.53 1.32 1.75 2.35 3.77 3.1 6.04s1.34 4.87 1.77 7.8c.43 2.94.65 6.21.65 9.84zm-17.26 6.81v-11.99c0-2.18-.04-3.89-.12-5.13-.09-1.24-.31-2.56-.65-3.97-.35-1.41-.88-2.47-1.6-3.19-.72-.72-1.66-1.44-2.84-2.15-1.18-.72-2.71-1.23-4.57-1.52-1.87-.28-4.06-.53-6.56-.73-2.5-.2-5.5-.3-9.01-.3h-29.07v48.56h30.1c4.43 0 8.08-.23 10.96-.69 2.87-.46 5.21-1.11 7.03-1.94 1.81-.83 3.17-2.1 4.09-3.8.92-1.69 1.53-3.5 1.81-5.43.29-1.93.43-4.5.43-7.72zM2237.31 1579.5h-72.79v-128.52h72.02l1.72 13.29h-56.23v41.31h48.04v13.97h-48.04v46.75h57.01l-1.73 13.2zM2429.62 1539.65l15.01 2.24c-.29 5.52-.77 10.22-1.47 14.11-.69 3.88-1.71 7.34-3.06 10.39-1.35 3.05-3 5.5-4.96 7.37-1.95 1.87-4.47 3.41-7.54 4.62-3.08 1.21-6.53 2.04-10.35 2.5-3.83.46-8.44.69-13.85.69-5.17 0-9.8-.13-13.88-.39-4.09-.26-7.81-.83-11.17-1.72-3.37-.89-6.3-1.76-8.8-2.59-2.5-.83-4.72-2.23-6.64-4.19-1.93-1.95-3.54-3.7-4.83-5.26-1.3-1.55-2.39-3.92-3.28-7.11-.89-3.19-1.57-6-2.03-8.41-.46-2.42-.82-5.92-1.07-10.52-.26-4.6-.42-8.63-.48-12.08-.06-3.45-.09-8.22-.09-14.32 0-6.44.03-11.61.09-15.52s.23-8.17.52-12.77c.29-4.6.65-8.16 1.08-10.69.43-2.53 1.12-5.31 2.07-8.33.95-3.02 2.02-5.26 3.23-6.72 1.21-1.47 2.79-3.07 4.74-4.79 1.96-1.73 4.1-2.92 6.43-3.58 2.33-.66 5.16-1.34 8.5-2.03 3.33-.69 6.91-1.12 10.73-1.29 3.83-.17 8.27-.26 13.33-.26 5.23 0 9.69.19 13.37.56 3.68.37 7.13 1.09 10.35 2.16 3.22 1.06 5.86 2.47 7.94 4.22 2.07 1.76 3.89 4.04 5.47 6.86 1.58 2.82 2.8 6.14 3.67 9.96.86 3.83 1.49 8.41 1.9 13.76l-15.1 2.93c-.29-2.93-.54-5.37-.77-7.33-.23-1.95-.57-3.88-1-5.78-.43-1.9-.77-3.43-1.03-4.61-.26-1.18-.79-2.33-1.6-3.45-.8-1.12-1.45-1.97-1.94-2.55-.49-.57-1.39-1.12-2.72-1.64-1.32-.51-2.42-.87-3.32-1.07-.89-.21-2.35-.39-4.39-.57-2.05-.17-3.81-.25-5.31-.25h-6.55c-4.03 0-7.32.04-9.88.13-2.56.08-5.12.28-7.68.6-2.56.32-4.57.78-6.04 1.38-1.46.6-2.83 1.41-4.09 2.42-1.27 1-2.17 2.24-2.72 3.7-.54 1.47-.88 3.24-.99 5.31-.52 15.18-.78 30.67-.78 46.49 0 11.04.26 21.82.78 32.34.29 3.28 1.22 5.84 2.8 7.68 1.58 1.84 4.66 3.31 9.23 4.4 4.57 1.09 11.06 1.64 19.45 1.64 4.49 0 8.25-.13 11.3-.39 3.05-.26 5.61-.86 7.68-1.81 2.07-.95 3.65-1.81 4.74-2.59 1.09-.78 1.97-2.29 2.63-4.53.66-2.24 1.09-4.12 1.3-5.65.2-1.52.41-4.12.64-7.8l.26-3.76c.06-.77.12-1.48.17-2.11zM2532.76 1581.57c-5 0-9.44-.12-13.32-.35-3.88-.23-7.46-.79-10.74-1.68-3.28-.89-6.08-1.71-8.41-2.46-2.33-.74-4.43-2.17-6.3-4.26-1.87-2.1-3.4-3.92-4.61-5.44-1.21-1.52-2.24-4.05-3.11-7.59-.86-3.54-1.49-6.55-1.89-9.06-.41-2.5-.74-6.36-.99-11.6-.26-5.23-.41-9.71-.44-13.45-.02-3.74-.04-9.14-.04-16.22 0-8.51.23-15.58.69-21.22.46-5.63 1.37-10.86 2.72-15.69s3.13-8.63 5.34-11.39c2.22-2.76 5.24-5.13 9.06-7.11 3.83-1.99 8.28-3.34 13.37-4.06 5.09-.72 11.31-1.08 18.67-1.08 6.96 0 12.91.35 17.86 1.04 4.94.69 9.33 1.91 13.15 3.66 3.83 1.76 6.9 3.94 9.23 6.56 2.33 2.62 4.24 6.05 5.74 10.31 1.49 4.25 2.51 9.01 3.06 14.27.55 5.26.82 11.66.82 19.19 0 21.28-.32 35.28-.95 42.01-1.09 11.5-3.74 19.72-7.94 24.67-4.42 5.28-11.96 8.62-22.59 10-5.06.63-11.19.95-18.38.95zm12.34-119.03c-3.28-.23-7.39-.34-12.34-.34-4.94 0-9.05.11-12.33.34-3.28.23-6.14.72-8.58 1.47-2.45.75-4.33 1.58-5.65 2.5-1.32.92-2.4 2.34-3.24 4.27-.83 1.92-1.38 3.89-1.63 5.91-.26 2.01-.45 4.74-.57 8.19-.17 10.64-.25 21.33-.25 32.09 0 16.21.43 27.31 1.29 33.29 1.38 8.97 4 14.14 7.85 15.53 2.87 1.66 10.58 2.5 23.11 2.5 12.54 0 20.24-.84 23.12-2.5 1.09-.41 2.08-1.07 2.98-1.99.89-.92 1.63-2.16 2.24-3.71.6-1.55 1.13-3.12 1.59-4.7.46-1.58.84-3.61 1.13-6.08.28-2.47.51-4.7.69-6.68.17-1.99.28-4.52.34-7.59.06-3.08.1-5.62.13-7.64.03-2.01.04-4.68.04-8.02 0-11.61-.08-23.11-.26-34.5-.11-3.45-.3-6.18-.56-8.19-.26-2.02-.8-3.99-1.64-5.91-.83-1.93-1.91-3.35-3.23-4.27-1.32-.92-3.21-1.75-5.65-2.5-2.44-.75-5.3-1.24-8.58-1.47z"/></g><g fill="#fff" fill-rule="nonzero"><path d="M714.203 1098.99c-1.62 7.12-2.915 13.28-3.887 18.46-.971 5.18-1.457 10.04-1.457 14.57 0 11.34 3.967 20.4 11.902 27.2 7.934 6.8 19.673 10.2 35.218 10.2 11.335 0 20.645-1.94 27.932-5.82 7.287-3.89 13.278-9.07 17.974-15.55 4.695-6.48 8.42-13.93 11.172-22.35 2.753-8.41 5.101-17.32 7.044-26.71l41.291-198.198h44.205l-42.262 199.168c-3.239 15.54-7.935 30.12-14.088 43.72-6.153 13.6-14.978 25.58-26.474 35.95-11.497 10.36-26.313 18.54-44.448 24.53-18.136 5.99-40.643 8.98-67.523 8.98-37.242 0-64.769-6.07-82.581-18.21-17.812-12.15-26.718-30.85-26.718-56.11 0-11.33 1.458-25.74 4.372-43.23 2.915-17.49 6.639-36.44 11.173-56.84l29.632-137.958h110.271l-42.748 198.198z"/><path d="M714.203 1098.99c-1.62 7.12-2.915 13.28-3.887 18.46-.971 5.18-1.457 10.04-1.457 14.57 0 11.34 3.967 20.4 11.902 27.2 7.934 6.8 19.673 10.2 35.218 10.2 11.335 0 20.645-1.94 27.932-5.82 7.287-3.89 13.278-9.07 17.974-15.55 4.695-6.48 8.42-13.93 11.172-22.35 2.753-8.41 5.101-17.32 7.044-26.71l41.291-198.198h44.205l-42.262 199.168c-3.239 15.54-7.935 30.12-14.088 43.72-6.153 13.6-14.978 25.58-26.474 35.95-11.497 10.36-26.313 18.54-44.448 24.53-18.136 5.99-40.643 8.98-67.523 8.98-37.242 0-64.769-6.07-82.581-18.21-17.812-12.15-26.718-30.85-26.718-56.11 0-11.33 1.458-25.74 4.372-43.23 2.915-17.49 6.639-36.44 11.173-56.84l29.632-137.958h110.271l-42.748 198.198zM1018.3 1031.46c6.8-6.47 14.41-12.46 22.83-17.97 7.45-4.53 16.19-8.74 26.23-12.63 10.04-3.885 21.21-5.828 33.52-5.828 16.84 0 30.76 4.291 41.77 12.868 11.01 8.59 16.52 20.33 16.52 35.22 0 4.21-.49 9.31-1.46 15.3-.97 6-2.1 12.23-3.4 18.71-1.29 6.48-2.67 13.03-4.13 19.67-1.45 6.64-2.67 12.55-3.64 17.73l-20.4 94.73h-98.61l26.71-126.79c.65-4.21 1.46-8.5 2.43-12.87.97-4.37 1.46-8.34 1.46-11.9 0-4.86-1.22-8.83-3.64-11.9-2.43-3.08-6.08-4.62-10.93-4.62-5.83 0-11.42 2.11-16.76 6.32-5.35 4.21-9.47 7.77-12.39 10.68l-32.061 151.08h-99.098l44.206-208.88h79.183l8.74 31.08h2.92z"/><path d="M1018.3 1031.46c6.8-6.47 14.41-12.46 22.83-17.97 7.45-4.53 16.19-8.74 26.23-12.63 10.04-3.885 21.21-5.828 33.52-5.828 16.84 0 30.76 4.291 41.77 12.868 11.01 8.59 16.52 20.33 16.52 35.22 0 4.21-.49 9.31-1.46 15.3-.97 6-2.1 12.23-3.4 18.71-1.29 6.48-2.67 13.03-4.13 19.67-1.45 6.64-2.67 12.55-3.64 17.73l-20.4 94.73h-98.61l26.71-126.79c.65-4.21 1.46-8.5 2.43-12.87.97-4.37 1.46-8.34 1.46-11.9 0-4.86-1.22-8.83-3.64-11.9-2.43-3.08-6.08-4.62-10.93-4.62-5.83 0-11.42 2.11-16.76 6.32-5.35 4.21-9.47 7.77-12.39 10.68l-32.061 151.08h-99.098l44.206-208.88h79.183l8.74 31.08h2.92zM1321.9 1061.58c.33-1.62.65-3.24.98-4.86.32-1.61.48-3.39.48-5.34 0-5.83-1.05-11.25-3.16-16.27-2.1-5.02-6.23-7.53-12.38-7.53-5.51 0-11.01 2.35-16.52 7.04-5.5 4.7-8.26 10.93-8.26 18.71 0 5.18 1.38 9.3 4.13 12.38s6.4 5.59 10.93 7.53c4.53 1.94 9.64 3.56 15.3 4.86 5.67 1.29 11.26 2.59 16.76 3.89 7.77 1.94 15.14 4.29 22.11 7.04 6.96 2.75 13.19 6.39 18.7 10.93 5.5 4.53 9.87 10.12 13.11 16.76 3.24 6.64 4.86 14.81 4.86 24.53 0 13.6-3.16 25.02-9.47 34.25-6.32 9.23-15.06 16.67-26.23 22.34-11.18 5.67-24.29 9.64-39.35 11.9-15.06 2.27-31.17 3.4-48.34 3.4-26.23 0-47.93-1.94-65.09-5.82-17.16-3.89-29.15-7.62-35.95-11.18l10.2-48.57h65.58c-.32 1.61-.48 3.15-.48 4.61v4.61c0 7.45 1.7 13.36 5.1 17.74 3.4 4.37 9.31 6.55 17.73 6.55 9.39 0 16.11-2.67 20.16-8.01 4.05-5.35 6.07-10.28 6.07-14.82 0-4.53-1.7-8.5-5.1-11.9-3.4-3.4-7.69-6.31-12.87-8.74-5.18-2.43-10.93-4.54-17.25-6.32-6.31-1.78-12.38-3.48-18.21-5.1-4.21-.97-8.99-2.59-14.33-4.86-5.35-2.26-10.45-5.5-15.31-9.71-4.85-4.21-8.9-9.64-12.14-16.28-3.24-6.64-4.86-14.97-4.86-25.01 0-14.25 3.48-26.15 10.45-35.71 6.96-9.55 16.03-17.24 27.2-23.07 11.17-5.83 23.8-10.04 37.89-12.632a234.57 234.57 0 0142.51-3.886c17.81 0 34.65 1.619 50.52 4.858 15.86 3.24 28.82 7.45 38.86 12.63l-11.18 49.06h-63.15z"/><path d="M1321.9 1061.58c.33-1.62.65-3.24.98-4.86.32-1.61.48-3.39.48-5.34 0-5.83-1.05-11.25-3.16-16.27-2.1-5.02-6.23-7.53-12.38-7.53-5.51 0-11.01 2.35-16.52 7.04-5.5 4.7-8.26 10.93-8.26 18.71 0 5.18 1.38 9.3 4.13 12.38s6.4 5.59 10.93 7.53c4.53 1.94 9.64 3.56 15.3 4.86 5.67 1.29 11.26 2.59 16.76 3.89 7.77 1.94 15.14 4.29 22.11 7.04 6.96 2.75 13.19 6.39 18.7 10.93 5.5 4.53 9.87 10.12 13.11 16.76 3.24 6.64 4.86 14.81 4.86 24.53 0 13.6-3.16 25.02-9.47 34.25-6.32 9.23-15.06 16.67-26.23 22.34-11.18 5.67-24.29 9.64-39.35 11.9-15.06 2.27-31.17 3.4-48.34 3.4-26.23 0-47.93-1.94-65.09-5.82-17.16-3.89-29.15-7.62-35.95-11.18l10.2-48.57h65.58c-.32 1.61-.48 3.15-.48 4.61v4.61c0 7.45 1.7 13.36 5.1 17.74 3.4 4.37 9.31 6.55 17.73 6.55 9.39 0 16.11-2.67 20.16-8.01 4.05-5.35 6.07-10.28 6.07-14.82 0-4.53-1.7-8.5-5.1-11.9-3.4-3.4-7.69-6.31-12.87-8.74-5.18-2.43-10.93-4.54-17.25-6.32-6.31-1.78-12.38-3.48-18.21-5.1-4.21-.97-8.99-2.59-14.33-4.86-5.35-2.26-10.45-5.5-15.31-9.71-4.85-4.21-8.9-9.64-12.14-16.28-3.24-6.64-4.86-14.97-4.86-25.01 0-14.25 3.48-26.15 10.45-35.71 6.96-9.55 16.03-17.24 27.2-23.07 11.17-5.83 23.8-10.04 37.89-12.632a234.57 234.57 0 0142.51-3.886c17.81 0 34.65 1.619 50.52 4.858 15.86 3.24 28.82 7.45 38.86 12.63l-11.18 49.06h-63.15zM1486.1 1290.87H1387l61.2-290.49h79.19l8.74 31.08h2.91c11.66-12.3 24.7-21.13 39.11-26.47 14.41-5.343 28.58-8.015 42.5-8.015 11.34 0 20.81 1.7 28.42 5.105 7.61 3.4 13.68 8.01 18.22 13.84 4.53 5.83 7.77 12.79 9.71 20.89 1.95 8.09 2.92 16.68 2.92 25.74 0 4.54-.33 11.34-.97 20.41-.65 9.07-2.11 19.18-4.37 30.36-2.27 11.17-5.51 22.67-9.72 34.49-4.21 11.82-9.8 22.59-16.76 32.3-6.96 9.72-15.71 17.65-26.23 23.8-10.53 6.16-23.08 9.23-37.65 9.23-8.1 0-15.95-.97-23.56-2.91-7.61-1.94-14.49-4.54-20.64-7.77-6.16-3.24-11.58-7.05-16.28-11.42-4.69-4.37-8.17-8.82-10.44-13.36h-2.92l-24.28 113.19zm51.49-124.85c7.77 0 14.25-4.13 19.43-12.38 5.18-8.26 9.39-17.98 12.63-29.15 3.24-11.17 5.58-22.35 7.04-33.52 1.46-11.17 2.19-19.51 2.19-25.02 0-6.47-1.05-11.82-3.16-16.03-2.1-4.21-5.91-6.31-11.42-6.31-6.15 0-11.98 2.19-17.48 6.56-5.51 4.37-9.56 8.17-12.15 11.41l-18.94 88.9c2.59 3.56 5.66 7.04 9.23 10.44 3.56 3.4 7.77 5.1 12.63 5.1z"/><path d="M1486.1 1290.87H1387l61.2-290.49h79.19l8.74 31.08h2.91c11.66-12.3 24.7-21.13 39.11-26.47 14.41-5.343 28.58-8.015 42.5-8.015 11.34 0 20.81 1.7 28.42 5.105 7.61 3.4 13.68 8.01 18.22 13.84 4.53 5.83 7.77 12.79 9.71 20.89 1.95 8.09 2.92 16.68 2.92 25.74 0 4.54-.33 11.34-.97 20.41-.65 9.07-2.11 19.18-4.37 30.36-2.27 11.17-5.51 22.67-9.72 34.49-4.21 11.82-9.8 22.59-16.76 32.3-6.96 9.72-15.71 17.65-26.23 23.8-10.53 6.16-23.08 9.23-37.65 9.23-8.1 0-15.95-.97-23.56-2.91-7.61-1.94-14.49-4.54-20.64-7.77-6.16-3.24-11.58-7.05-16.28-11.42-4.69-4.37-8.17-8.82-10.44-13.36h-2.92l-24.28 113.19zm51.49-124.85c7.77 0 14.25-4.13 19.43-12.38 5.18-8.26 9.39-17.98 12.63-29.15 3.24-11.17 5.58-22.35 7.04-33.52 1.46-11.17 2.19-19.51 2.19-25.02 0-6.47-1.05-11.82-3.16-16.03-2.1-4.21-5.91-6.31-11.42-6.31-6.15 0-11.98 2.19-17.48 6.56-5.51 4.37-9.56 8.17-12.15 11.41l-18.94 88.9c2.59 3.56 5.66 7.04 9.23 10.44 3.56 3.4 7.77 5.1 12.63 5.1zM1798.93 1111.62c-1.29 7.12-2.18 13.92-2.67 20.4-.48 6.48-.73 12.31-.73 17.49 0 2.91.16 6.15.49 9.71.32 3.57 1.05 6.89 2.18 9.96 1.14 3.08 2.76 5.67 4.86 7.77 2.11 2.11 5.1 3.16 8.99 3.16 2.91 0 6.23-.97 9.96-2.91 3.72-1.95 7.44-4.7 11.17-8.26 3.72-3.56 7.29-7.94 10.69-13.12 3.4-5.18 6.07-11.01 8.01-17.48h79.67l-12.63 51.97c-6.48 4.21-13.93 7.78-22.35 10.69-8.42 2.91-17.32 5.26-26.71 7.04-9.4 1.78-18.95 3.08-28.67 3.89-9.71.81-18.94 1.21-27.68 1.21-16.2 0-31.26-1.45-45.18-4.37-13.93-2.91-26.07-7.93-36.43-15.06-10.37-7.12-18.54-16.59-24.54-28.41-5.99-11.82-8.98-26.48-8.98-43.97 0-15.87 2.51-31.41 7.53-46.63 5.02-15.22 13.44-28.74 25.26-40.56 11.82-11.82 27.69-21.3 47.6-28.42 19.92-7.126 44.78-10.688 74.57-10.688 32.38 0 56.75 5.018 73.11 15.058 16.35 10.04 24.53 25.75 24.53 47.12 0 8.74-1.3 18.22-3.89 28.42-2.59 10.2-6.47 18.86-11.66 25.99h-136.5zm64.61-57.81c0-10.04-1.62-16.84-4.86-20.4-3.24-3.56-7.12-5.34-11.66-5.34-5.18 0-9.95 1.7-14.33 5.09-4.37 3.41-8.34 7.94-11.9 13.61-3.56 5.66-6.8 12.14-9.71 19.43-2.92 7.28-5.35 14.98-7.29 23.07h55.38c.65-3.88 1.29-7.93 1.94-12.14.65-3.56 1.22-7.45 1.7-11.66.49-4.21.73-8.1.73-11.66z"/><path d="M1798.93 1111.62c-1.29 7.12-2.18 13.92-2.67 20.4-.48 6.48-.73 12.31-.73 17.49 0 2.91.16 6.15.49 9.71.32 3.57 1.05 6.89 2.18 9.96 1.14 3.08 2.76 5.67 4.86 7.77 2.11 2.11 5.1 3.16 8.99 3.16 2.91 0 6.23-.97 9.96-2.91 3.72-1.95 7.44-4.7 11.17-8.26 3.72-3.56 7.29-7.94 10.69-13.12 3.4-5.18 6.07-11.01 8.01-17.48h79.67l-12.63 51.97c-6.48 4.21-13.93 7.78-22.35 10.69-8.42 2.91-17.32 5.26-26.71 7.04-9.4 1.78-18.95 3.08-28.67 3.89-9.71.81-18.94 1.21-27.68 1.21-16.2 0-31.26-1.45-45.18-4.37-13.93-2.91-26.07-7.93-36.43-15.06-10.37-7.12-18.54-16.59-24.54-28.41-5.99-11.82-8.98-26.48-8.98-43.97 0-15.87 2.51-31.41 7.53-46.63 5.02-15.22 13.44-28.74 25.26-40.56 11.82-11.82 27.69-21.3 47.6-28.42 19.92-7.126 44.78-10.688 74.57-10.688 32.38 0 56.75 5.018 73.11 15.058 16.35 10.04 24.53 25.75 24.53 47.12 0 8.74-1.3 18.22-3.89 28.42-2.59 10.2-6.47 18.86-11.66 25.99h-136.5zm64.61-57.81c0-10.04-1.62-16.84-4.86-20.4-3.24-3.56-7.12-5.34-11.66-5.34-5.18 0-9.95 1.7-14.33 5.09-4.37 3.41-8.34 7.94-11.9 13.61-3.56 5.66-6.8 12.14-9.71 19.43-2.92 7.28-5.35 14.98-7.29 23.07h55.38c.65-3.88 1.29-7.93 1.94-12.14.65-3.56 1.22-7.45 1.7-11.66.49-4.21.73-8.1.73-11.66zM2174.43 1197.6c-13.6 5.51-27.93 9.47-42.99 11.9-15.05 2.43-32.14 3.64-51.24 3.64-16.85 0-32.31-1.7-46.4-5.1-14.08-3.4-26.31-8.82-36.67-16.27-10.37-7.45-18.46-17.08-24.29-28.9-5.83-11.82-8.74-26.15-8.74-42.99 0-17.49 2.99-33.77 8.98-48.82 5.99-15.06 15.06-28.26 27.21-39.6 12.14-11.33 27.6-20.24 46.39-26.71 18.78-6.479 41.12-9.718 67.03-9.718 21.05 0 39.35 1.7 54.9 5.098 15.54 3.4 28.33 11.09 38.37 23.08l-13.6 62.18h-66.07c.33-5.51.65-10.37.98-14.58.32-4.21.48-8.9.48-14.09 0-10.36-1.13-17.73-3.4-22.1-2.27-4.37-5.99-6.55-11.17-6.55-9.07 0-17 4.45-23.8 13.35-6.8 8.91-12.39 19.6-16.76 32.06-4.38 12.47-7.61 25.59-9.72 39.35-2.1 13.77-3.16 25.51-3.16 35.22 0 3.56.17 7.21.49 10.93.32 3.72 1.05 7.21 2.18 10.44 1.14 3.24 2.68 5.83 4.62 7.78 1.94 1.94 4.7 2.91 8.26 2.91 3.24 0 6.96-.97 11.17-2.91 4.21-1.95 8.26-4.94 12.14-8.99 3.89-4.05 7.62-9.31 11.18-15.79 3.56-6.48 6.31-14.25 8.26-23.31h69.46l-14.09 68.49z"/><path d="M2174.43 1197.6c-13.6 5.51-27.93 9.47-42.99 11.9-15.05 2.43-32.14 3.64-51.24 3.64-16.85 0-32.31-1.7-46.4-5.1-14.08-3.4-26.31-8.82-36.67-16.27-10.37-7.45-18.46-17.08-24.29-28.9-5.83-11.82-8.74-26.15-8.74-42.99 0-17.49 2.99-33.77 8.98-48.82 5.99-15.06 15.06-28.26 27.21-39.6 12.14-11.33 27.6-20.24 46.39-26.71 18.78-6.479 41.12-9.718 67.03-9.718 21.05 0 39.35 1.7 54.9 5.098 15.54 3.4 28.33 11.09 38.37 23.08l-13.6 62.18h-66.07c.33-5.51.65-10.37.98-14.58.32-4.21.48-8.9.48-14.09 0-10.36-1.13-17.73-3.4-22.1-2.27-4.37-5.99-6.55-11.17-6.55-9.07 0-17 4.45-23.8 13.35-6.8 8.91-12.39 19.6-16.76 32.06-4.38 12.47-7.61 25.59-9.72 39.35-2.1 13.77-3.16 25.51-3.16 35.22 0 3.56.17 7.21.49 10.93.32 3.72 1.05 7.21 2.18 10.44 1.14 3.24 2.68 5.83 4.62 7.78 1.94 1.94 4.7 2.91 8.26 2.91 3.24 0 6.96-.97 11.17-2.91 4.21-1.95 8.26-4.94 12.14-8.99 3.89-4.05 7.62-9.31 11.18-15.79 3.56-6.48 6.31-14.25 8.26-23.31h69.46l-14.09 68.49zM2305.59 1209.26h-98.61l44.21-208.88h99.58l-45.18 208.88zm57.81-272.521c0 7.449-1.54 13.926-4.62 19.431-3.07 5.506-7.12 10.202-12.14 14.088-5.02 3.886-10.77 6.801-17.24 8.744a68.987 68.987 0 01-19.92 2.914c-12.95 0-23.8-3.076-32.55-9.229-8.74-6.154-13.11-15.869-13.11-29.147 0-7.124 1.45-13.52 4.37-19.188 2.91-5.667 6.88-10.363 11.9-14.087 5.02-3.724 10.85-6.558 17.49-8.501 6.64-1.943 13.52-2.915 20.64-2.915 12.63 0 23.32 3.077 32.06 9.23 8.75 6.153 13.12 15.706 13.12 28.66z"/><path d="M2305.59 1209.26h-98.61l44.21-208.88h99.58l-45.18 208.88zm57.81-272.521c0 7.449-1.54 13.926-4.62 19.431-3.07 5.506-7.12 10.202-12.14 14.088-5.02 3.886-10.77 6.801-17.24 8.744a68.987 68.987 0 01-19.92 2.914c-12.95 0-23.8-3.076-32.55-9.229-8.74-6.154-13.11-15.869-13.11-29.147 0-7.124 1.45-13.52 4.37-19.188 2.91-5.667 6.88-10.363 11.9-14.087 5.02-3.724 10.85-6.558 17.49-8.501 6.64-1.943 13.52-2.915 20.64-2.915 12.63 0 23.32 3.077 32.06 9.23 8.75 6.153 13.12 15.706 13.12 28.66zM2376.52 1000.38h37.4l4.37-19.921c4.21-19.431 10.93-35.866 20.16-49.306 9.23-13.44 20.4-24.37 33.52-32.79 13.12-8.42 27.69-14.492 43.72-18.216 16.03-3.724 32.95-5.586 50.76-5.586 15.87 0 31.01 1.457 45.42 4.371 14.41 2.915 29.88 7.611 46.39 14.088l-15.54 48.091c-10.36-4.534-20.65-8.177-30.85-10.93-10.2-2.752-21.13-4.129-32.79-4.129-6.15 0-12.3.486-18.46 1.458-6.15.971-11.82 2.833-17 5.586s-9.71 6.639-13.6 11.659c-3.89 5.019-6.8 11.577-8.74 19.673l-7.78 35.952h160.31l-44.69 208.88h-99.1l37.4-176.34h-60.72l-37.89 176.34h-98.61l36.92-176.34h-37.4l6.8-32.54z"/><path d="M2376.52 1000.38h37.4l4.37-19.921c4.21-19.431 10.93-35.866 20.16-49.306 9.23-13.44 20.4-24.37 33.52-32.79 13.12-8.42 27.69-14.492 43.72-18.216 16.03-3.724 32.95-5.586 50.76-5.586 15.87 0 31.01 1.457 45.42 4.371 14.41 2.915 29.88 7.611 46.39 14.088l-15.54 48.091c-10.36-4.534-20.65-8.177-30.85-10.93-10.2-2.752-21.13-4.129-32.79-4.129-6.15 0-12.3.486-18.46 1.458-6.15.971-11.82 2.833-17 5.586s-9.71 6.639-13.6 11.659c-3.89 5.019-6.8 11.577-8.74 19.673l-7.78 35.952h160.31l-44.69 208.88h-99.1l37.4-176.34h-60.72l-37.89 176.34h-98.61l36.92-176.34h-37.4l6.8-32.54zM2783.11 1111.62c-1.3 7.12-2.19 13.92-2.68 20.4-.48 6.48-.72 12.31-.72 17.49 0 2.91.16 6.15.48 9.71.33 3.57 1.05 6.89 2.19 9.96 1.13 3.08 2.75 5.67 4.86 7.77 2.1 2.11 5.1 3.16 8.98 3.16 2.92 0 6.24-.97 9.96-2.91 3.73-1.95 7.45-4.7 11.17-8.26 3.73-3.56 7.29-7.94 10.69-13.12 3.4-5.18 6.07-11.01 8.02-17.48h79.66l-12.63 51.97c-6.47 4.21-13.92 7.78-22.34 10.69-8.42 2.91-17.33 5.26-26.72 7.04a277.48 277.48 0 01-28.66 3.89c-9.72.81-18.95 1.21-27.69 1.21-16.19 0-31.25-1.45-45.18-4.37-13.92-2.91-26.07-7.93-36.43-15.06-10.36-7.12-18.54-16.59-24.53-28.41-5.99-11.82-8.99-26.48-8.99-43.97 0-15.87 2.51-31.41 7.53-46.63 5.02-15.22 13.44-28.74 25.26-40.56 11.82-11.82 27.69-21.3 47.61-28.42 19.91-7.126 44.77-10.688 74.56-10.688 32.39 0 56.76 5.018 73.11 15.058 16.36 10.04 24.53 25.75 24.53 47.12 0 8.74-1.29 18.22-3.88 28.42-2.59 10.2-6.48 18.86-11.66 25.99h-136.5zm64.61-57.81c0-10.04-1.62-16.84-4.86-20.4-3.24-3.56-7.13-5.34-11.66-5.34-5.18 0-9.96 1.7-14.33 5.09-4.37 3.41-8.34 7.94-11.9 13.61-3.56 5.66-6.8 12.14-9.72 19.43-2.91 7.28-5.34 14.98-7.28 23.07h55.37c.65-3.88 1.3-7.93 1.95-12.14.64-3.56 1.21-7.45 1.7-11.66.48-4.21.73-8.1.73-11.66z"/><path d="M2783.11 1111.62c-1.3 7.12-2.19 13.92-2.68 20.4-.48 6.48-.72 12.31-.72 17.49 0 2.91.16 6.15.48 9.71.33 3.57 1.05 6.89 2.19 9.96 1.13 3.08 2.75 5.67 4.86 7.77 2.1 2.11 5.1 3.16 8.98 3.16 2.92 0 6.24-.97 9.96-2.91 3.73-1.95 7.45-4.7 11.17-8.26 3.73-3.56 7.29-7.94 10.69-13.12 3.4-5.18 6.07-11.01 8.02-17.48h79.66l-12.63 51.97c-6.47 4.21-13.92 7.78-22.34 10.69-8.42 2.91-17.33 5.26-26.72 7.04a277.48 277.48 0 01-28.66 3.89c-9.72.81-18.95 1.21-27.69 1.21-16.19 0-31.25-1.45-45.18-4.37-13.92-2.91-26.07-7.93-36.43-15.06-10.36-7.12-18.54-16.59-24.53-28.41-5.99-11.82-8.99-26.48-8.99-43.97 0-15.87 2.51-31.41 7.53-46.63 5.02-15.22 13.44-28.74 25.26-40.56 11.82-11.82 27.69-21.3 47.61-28.42 19.91-7.126 44.77-10.688 74.56-10.688 32.39 0 56.76 5.018 73.11 15.058 16.36 10.04 24.53 25.75 24.53 47.12 0 8.74-1.29 18.22-3.88 28.42-2.59 10.2-6.48 18.86-11.66 25.99h-136.5zm64.61-57.81c0-10.04-1.62-16.84-4.86-20.4-3.24-3.56-7.13-5.34-11.66-5.34-5.18 0-9.96 1.7-14.33 5.09-4.37 3.41-8.34 7.94-11.9 13.61-3.56 5.66-6.8 12.14-9.72 19.43-2.91 7.28-5.34 14.98-7.28 23.07h55.37c.65-3.88 1.3-7.93 1.95-12.14.64-3.56 1.21-7.45 1.7-11.66.48-4.21.73-8.1.73-11.66zM3145.01 882.819h99.58l-69.46 326.441h-78.7l-8.74-31.09h-3.4c-1.95 2.91-4.94 6.39-8.99 10.44s-9.15 7.94-15.3 11.66c-6.16 3.73-13.44 6.8-21.86 9.23-8.42 2.43-18.14 3.64-29.15 3.64-11.33 0-20.97-1.7-28.9-5.1-7.94-3.4-14.41-8.01-19.43-13.84s-8.67-12.87-10.93-21.13c-2.27-8.26-3.4-17.25-3.4-26.96 0-4.21.32-10.93.97-20.16.65-9.23 2.18-19.43 4.61-30.61 2.43-11.17 5.99-22.67 10.69-34.49 4.7-11.82 11.01-22.58 18.95-32.3 7.93-9.71 17.73-17.73 29.38-24.05 11.66-6.31 25.75-9.468 42.27-9.468 5.18 0 10.68.486 16.51 1.457a61.402 61.402 0 0116.76 5.341c5.35 2.59 10.12 6.32 14.33 11.18 4.21 4.85 7.29 11.17 9.23 18.94h3.4l31.58-149.131zm-59.27 159.821c-7.77 0-14.25 4.29-19.43 12.87-5.18 8.58-9.39 18.54-12.63 29.88-3.24 11.33-5.58 22.67-7.04 34-1.46 11.34-2.19 19.75-2.19 25.26 0 6.48.97 11.9 2.92 16.27 1.94 4.38 5.66 6.56 11.17 6.56 3.24 0 6.4-.73 9.47-2.18a48.73 48.73 0 008.75-5.35c2.75-2.1 5.1-4.29 7.04-6.56 1.94-2.26 3.56-4.21 4.86-5.82l18.94-88.42c-2.26-3.56-5.26-7.2-8.98-10.93-3.73-3.72-8.02-5.58-12.88-5.58z"/><path d="M3145.01 882.819h99.58l-69.46 326.441h-78.7l-8.74-31.09h-3.4c-1.95 2.91-4.94 6.39-8.99 10.44s-9.15 7.94-15.3 11.66c-6.16 3.73-13.44 6.8-21.86 9.23-8.42 2.43-18.14 3.64-29.15 3.64-11.33 0-20.97-1.7-28.9-5.1-7.94-3.4-14.41-8.01-19.43-13.84s-8.67-12.87-10.93-21.13c-2.27-8.26-3.4-17.25-3.4-26.96 0-4.21.32-10.93.97-20.16.65-9.23 2.18-19.43 4.61-30.61 2.43-11.17 5.99-22.67 10.69-34.49 4.7-11.82 11.01-22.58 18.95-32.3 7.93-9.71 17.73-17.73 29.38-24.05 11.66-6.31 25.75-9.468 42.27-9.468 5.18 0 10.68.486 16.51 1.457a61.402 61.402 0 0116.76 5.341c5.35 2.59 10.12 6.32 14.33 11.18 4.21 4.85 7.29 11.17 9.23 18.94h3.4l31.58-149.131zm-59.27 159.821c-7.77 0-14.25 4.29-19.43 12.87-5.18 8.58-9.39 18.54-12.63 29.88-3.24 11.33-5.58 22.67-7.04 34-1.46 11.34-2.19 19.75-2.19 25.26 0 6.48.97 11.9 2.92 16.27 1.94 4.38 5.66 6.56 11.17 6.56 3.24 0 6.4-.73 9.47-2.18a48.73 48.73 0 008.75-5.35c2.75-2.1 5.1-4.29 7.04-6.56 1.94-2.26 3.56-4.21 4.86-5.82l18.94-88.42c-2.26-3.56-5.26-7.2-8.98-10.93-3.73-3.72-8.02-5.58-12.88-5.58z"/></g><g fill="#ce3240" fill-rule="nonzero"><path d="M709.786 1093.69c-1.619 7.12-2.914 13.28-3.886 18.46-.971 5.18-1.457 10.04-1.457 14.57 0 11.34 3.967 20.4 11.901 27.2 7.935 6.81 19.674 10.2 35.219 10.2 11.335 0 20.645-1.94 27.932-5.82 7.286-3.89 13.278-9.07 17.973-15.55 4.696-6.48 8.42-13.92 11.173-22.34s5.101-17.33 7.044-26.72l41.291-198.197h44.205l-42.262 199.167c-3.239 15.54-7.935 30.12-14.088 43.72-6.153 13.6-14.978 25.58-26.474 35.95-11.497 10.36-26.313 18.54-44.449 24.53-18.135 5.99-40.643 8.99-67.522 8.99-37.242 0-64.77-6.08-82.581-18.22-17.812-12.15-26.718-30.85-26.718-56.11 0-11.33 1.458-25.74 4.372-43.23 2.915-17.49 6.639-36.43 11.173-56.84l29.632-137.957h110.27l-42.748 198.197z"/><path d="M709.786 1093.69c-1.619 7.12-2.914 13.28-3.886 18.46-.971 5.18-1.457 10.04-1.457 14.57 0 11.34 3.967 20.4 11.901 27.2 7.935 6.81 19.674 10.2 35.219 10.2 11.335 0 20.645-1.94 27.932-5.82 7.286-3.89 13.278-9.07 17.973-15.55 4.696-6.48 8.42-13.92 11.173-22.34s5.101-17.33 7.044-26.72l41.291-198.197h44.205l-42.262 199.167c-3.239 15.54-7.935 30.12-14.088 43.72-6.153 13.6-14.978 25.58-26.474 35.95-11.497 10.36-26.313 18.54-44.449 24.53-18.135 5.99-40.643 8.99-67.522 8.99-37.242 0-64.77-6.08-82.581-18.22-17.812-12.15-26.718-30.85-26.718-56.11 0-11.33 1.458-25.74 4.372-43.23 2.915-17.49 6.639-36.43 11.173-56.84l29.632-137.957h110.27l-42.748 198.197zM1013.88 1026.17c6.8-6.48 14.41-12.47 22.83-17.98 7.45-4.53 16.19-8.742 26.23-12.628 10.04-3.886 21.21-5.829 33.52-5.829 16.84 0 30.77 4.291 41.78 12.877 11.01 8.58 16.51 20.32 16.51 35.21 0 4.21-.48 9.31-1.45 15.31-.97 5.99-2.11 12.22-3.4 18.7-1.3 6.48-2.67 13.03-4.13 19.67-1.46 6.64-2.67 12.55-3.65 17.73l-20.4 94.73h-98.61l26.72-126.79c.64-4.21 1.45-8.5 2.43-12.87.97-4.37 1.45-8.34 1.45-11.9 0-4.86-1.21-8.83-3.64-11.9-2.43-3.08-6.07-4.62-10.93-4.62-5.83 0-11.42 2.11-16.76 6.32-5.34 4.21-9.47 7.77-12.39 10.68l-32.057 151.08h-99.098l44.206-208.884h79.179l8.75 31.094h2.91z"/><path d="M1013.88 1026.17c6.8-6.48 14.41-12.47 22.83-17.98 7.45-4.53 16.19-8.742 26.23-12.628 10.04-3.886 21.21-5.829 33.52-5.829 16.84 0 30.77 4.291 41.78 12.877 11.01 8.58 16.51 20.32 16.51 35.21 0 4.21-.48 9.31-1.45 15.31-.97 5.99-2.11 12.22-3.4 18.7-1.3 6.48-2.67 13.03-4.13 19.67-1.46 6.64-2.67 12.55-3.65 17.73l-20.4 94.73h-98.61l26.72-126.79c.64-4.21 1.45-8.5 2.43-12.87.97-4.37 1.45-8.34 1.45-11.9 0-4.86-1.21-8.83-3.64-11.9-2.43-3.08-6.07-4.62-10.93-4.62-5.83 0-11.42 2.11-16.76 6.32-5.34 4.21-9.47 7.77-12.39 10.68l-32.057 151.08h-99.098l44.206-208.884h79.179l8.75 31.094h2.91zM1317.49 1056.28c.32-1.62.64-3.23.97-4.85.32-1.62.48-3.4.48-5.35 0-5.83-1.05-11.25-3.15-16.27-2.11-5.02-6.24-7.53-12.39-7.53-5.51 0-11.01 2.35-16.52 7.04-5.5 4.7-8.25 10.93-8.25 18.71 0 5.18 1.37 9.31 4.13 12.38 2.75 3.08 6.39 5.59 10.92 7.53 4.54 1.94 9.64 3.56 15.31 4.86 5.66 1.3 11.25 2.59 16.76 3.89 7.77 1.94 15.14 4.29 22.1 7.04 6.96 2.75 13.2 6.4 18.7 10.93 5.51 4.53 9.88 10.12 13.12 16.76 3.23 6.64 4.85 14.82 4.85 24.53 0 13.6-3.15 25.02-9.47 34.25-6.31 9.23-15.06 16.68-26.23 22.34-11.17 5.67-24.29 9.64-39.35 11.9-15.06 2.27-31.17 3.41-48.33 3.41-26.23 0-47.93-1.95-65.09-5.83-17.17-3.89-29.15-7.62-35.95-11.18l10.2-48.57h65.58c-.33 1.61-.49 3.15-.49 4.61v4.62c0 7.44 1.7 13.35 5.1 17.73 3.4 4.37 9.31 6.55 17.73 6.55 9.4 0 16.12-2.67 20.16-8.01 4.05-5.35 6.07-10.28 6.07-14.82 0-4.53-1.69-8.5-5.09-11.9-3.41-3.4-7.7-6.31-12.88-8.74-5.18-2.43-10.93-4.54-17.24-6.32-6.32-1.78-12.39-3.48-18.22-5.1-4.21-.97-8.99-2.59-14.33-4.86-5.34-2.26-10.44-5.5-15.3-9.71-4.86-4.21-8.91-9.64-12.15-16.27-3.23-6.64-4.85-14.98-4.85-25.02 0-14.25 3.48-26.15 10.44-35.71 6.96-9.55 16.03-17.24 27.2-23.07 11.18-5.83 23.81-10.04 37.89-12.631a234.57 234.57 0 0142.51-3.886c17.81 0 34.65 1.619 50.52 4.857 15.87 3.239 28.82 7.45 38.86 12.63l-11.17 49.06h-63.15z"/><path d="M1317.49 1056.28c.32-1.62.64-3.23.97-4.85.32-1.62.48-3.4.48-5.35 0-5.83-1.05-11.25-3.15-16.27-2.11-5.02-6.24-7.53-12.39-7.53-5.51 0-11.01 2.35-16.52 7.04-5.5 4.7-8.25 10.93-8.25 18.71 0 5.18 1.37 9.31 4.13 12.38 2.75 3.08 6.39 5.59 10.92 7.53 4.54 1.94 9.64 3.56 15.31 4.86 5.66 1.3 11.25 2.59 16.76 3.89 7.77 1.94 15.14 4.29 22.1 7.04 6.96 2.75 13.2 6.4 18.7 10.93 5.51 4.53 9.88 10.12 13.12 16.76 3.23 6.64 4.85 14.82 4.85 24.53 0 13.6-3.15 25.02-9.47 34.25-6.31 9.23-15.06 16.68-26.23 22.34-11.17 5.67-24.29 9.64-39.35 11.9-15.06 2.27-31.17 3.41-48.33 3.41-26.23 0-47.93-1.95-65.09-5.83-17.17-3.89-29.15-7.62-35.95-11.18l10.2-48.57h65.58c-.33 1.61-.49 3.15-.49 4.61v4.62c0 7.44 1.7 13.35 5.1 17.73 3.4 4.37 9.31 6.55 17.73 6.55 9.4 0 16.12-2.67 20.16-8.01 4.05-5.35 6.07-10.28 6.07-14.82 0-4.53-1.69-8.5-5.09-11.9-3.41-3.4-7.7-6.31-12.88-8.74-5.18-2.43-10.93-4.54-17.24-6.32-6.32-1.78-12.39-3.48-18.22-5.1-4.21-.97-8.99-2.59-14.33-4.86-5.34-2.26-10.44-5.5-15.3-9.71-4.86-4.21-8.91-9.64-12.15-16.27-3.23-6.64-4.85-14.98-4.85-25.02 0-14.25 3.48-26.15 10.44-35.71 6.96-9.55 16.03-17.24 27.2-23.07 11.18-5.83 23.81-10.04 37.89-12.631a234.57 234.57 0 0142.51-3.886c17.81 0 34.65 1.619 50.52 4.857 15.87 3.239 28.82 7.45 38.86 12.63l-11.17 49.06h-63.15zM1481.68 1285.57h-99.1l61.21-290.494h79.18l8.74 31.094h2.92c11.66-12.31 24.69-21.14 39.1-26.479 14.41-5.343 28.58-8.015 42.51-8.015 11.33 0 20.81 1.7 28.41 5.1 7.62 3.404 13.69 8.014 18.22 13.844 4.54 5.83 7.77 12.79 9.72 20.89 1.94 8.1 2.91 16.68 2.91 25.75 0 4.53-.32 11.33-.97 20.4-.65 9.06-2.11 19.19-4.37 30.36-2.27 11.17-5.51 22.67-9.72 34.49-4.21 11.82-9.79 22.59-16.76 32.3-6.96 9.72-15.7 17.65-26.23 23.81-10.52 6.15-23.07 9.23-37.64 9.23-8.1 0-15.95-.98-23.56-2.92-7.62-1.94-14.5-4.53-20.65-7.77-6.15-3.24-11.58-7.05-16.27-11.42-4.7-4.37-8.18-8.82-10.45-13.36h-2.91l-24.29 113.19zm51.49-124.84c7.77 0 14.25-4.13 19.43-12.39 5.18-8.26 9.39-17.98 12.63-29.15 3.24-11.17 5.59-22.34 7.05-33.52 1.45-11.17 2.18-19.51 2.18-25.01 0-6.48-1.05-11.82-3.16-16.04-2.1-4.21-5.91-6.31-11.41-6.31-6.15 0-11.98 2.19-17.49 6.56-5.51 4.37-9.55 8.18-12.14 11.41l-18.95 88.9c2.59 3.56 5.67 7.04 9.23 10.44 3.56 3.4 7.77 5.11 12.63 5.11z"/><path d="M1481.68 1285.57h-99.1l61.21-290.494h79.18l8.74 31.094h2.92c11.66-12.31 24.69-21.14 39.1-26.479 14.41-5.343 28.58-8.015 42.51-8.015 11.33 0 20.81 1.7 28.41 5.1 7.62 3.404 13.69 8.014 18.22 13.844 4.54 5.83 7.77 12.79 9.72 20.89 1.94 8.1 2.91 16.68 2.91 25.75 0 4.53-.32 11.33-.97 20.4-.65 9.06-2.11 19.19-4.37 30.36-2.27 11.17-5.51 22.67-9.72 34.49-4.21 11.82-9.79 22.59-16.76 32.3-6.96 9.72-15.7 17.65-26.23 23.81-10.52 6.15-23.07 9.23-37.64 9.23-8.1 0-15.95-.98-23.56-2.92-7.62-1.94-14.5-4.53-20.65-7.77-6.15-3.24-11.58-7.05-16.27-11.42-4.7-4.37-8.18-8.82-10.45-13.36h-2.91l-24.29 113.19zm51.49-124.84c7.77 0 14.25-4.13 19.43-12.39 5.18-8.26 9.39-17.98 12.63-29.15 3.24-11.17 5.59-22.34 7.05-33.52 1.45-11.17 2.18-19.51 2.18-25.01 0-6.48-1.05-11.82-3.16-16.04-2.1-4.21-5.91-6.31-11.41-6.31-6.15 0-11.98 2.19-17.49 6.56-5.51 4.37-9.55 8.18-12.14 11.41l-18.95 88.9c2.59 3.56 5.67 7.04 9.23 10.44 3.56 3.4 7.77 5.11 12.63 5.11zM1794.52 1106.32c-1.3 7.12-2.19 13.92-2.68 20.4-.48 6.48-.72 12.31-.72 17.49 0 2.91.16 6.15.48 9.71.32 3.57 1.05 6.89 2.19 9.96 1.13 3.08 2.75 5.67 4.85 7.77 2.11 2.11 5.11 3.16 8.99 3.16 2.92 0 6.24-.97 9.96-2.91 3.73-1.95 7.45-4.7 11.17-8.26 3.73-3.56 7.29-7.94 10.69-13.12 3.4-5.18 6.07-11.01 8.02-17.48h79.66l-12.63 51.97c-6.47 4.21-13.92 7.78-22.34 10.69-8.42 2.92-17.33 5.26-26.72 7.04a275.14 275.14 0 01-28.66 3.89c-9.72.81-18.95 1.22-27.69 1.22-16.19 0-31.25-1.46-45.18-4.38-13.92-2.91-26.07-7.93-36.43-15.06-10.36-7.12-18.54-16.59-24.53-28.41-5.99-11.82-8.99-26.48-8.99-43.97 0-15.87 2.51-31.41 7.53-46.63 5.02-15.22 13.44-28.74 25.26-40.56 11.82-11.82 27.69-21.3 47.61-28.42 19.91-7.125 44.77-10.687 74.56-10.687 32.39 0 56.76 5.019 73.11 15.057 16.36 10.04 24.53 25.75 24.53 47.12 0 8.75-1.29 18.22-3.88 28.42-2.59 10.2-6.48 18.86-11.66 25.99h-136.5zm64.6-57.81c0-10.04-1.61-16.84-4.85-20.4-3.24-3.56-7.13-5.35-11.66-5.35-5.18 0-9.96 1.7-14.33 5.11-4.38 3.4-8.34 7.93-11.9 13.6-3.57 5.66-6.8 12.14-9.72 19.43-2.91 7.28-5.34 14.98-7.29 23.07h55.38c.65-3.88 1.3-7.93 1.94-12.14.65-3.56 1.22-7.45 1.7-11.66.49-4.21.73-8.1.73-11.66z"/><path d="M1794.52 1106.32c-1.3 7.12-2.19 13.92-2.68 20.4-.48 6.48-.72 12.31-.72 17.49 0 2.91.16 6.15.48 9.71.32 3.57 1.05 6.89 2.19 9.96 1.13 3.08 2.75 5.67 4.85 7.77 2.11 2.11 5.11 3.16 8.99 3.16 2.92 0 6.24-.97 9.96-2.91 3.73-1.95 7.45-4.7 11.17-8.26 3.73-3.56 7.29-7.94 10.69-13.12 3.4-5.18 6.07-11.01 8.02-17.48h79.66l-12.63 51.97c-6.47 4.21-13.92 7.78-22.34 10.69-8.42 2.92-17.33 5.26-26.72 7.04a275.14 275.14 0 01-28.66 3.89c-9.72.81-18.95 1.22-27.69 1.22-16.19 0-31.25-1.46-45.18-4.38-13.92-2.91-26.07-7.93-36.43-15.06-10.36-7.12-18.54-16.59-24.53-28.41-5.99-11.82-8.99-26.48-8.99-43.97 0-15.87 2.51-31.41 7.53-46.63 5.02-15.22 13.44-28.74 25.26-40.56 11.82-11.82 27.69-21.3 47.61-28.42 19.91-7.125 44.77-10.687 74.56-10.687 32.39 0 56.76 5.019 73.11 15.057 16.36 10.04 24.53 25.75 24.53 47.12 0 8.75-1.29 18.22-3.88 28.42-2.59 10.2-6.48 18.86-11.66 25.99h-136.5zm64.6-57.81c0-10.04-1.61-16.84-4.85-20.4-3.24-3.56-7.13-5.35-11.66-5.35-5.18 0-9.96 1.7-14.33 5.11-4.38 3.4-8.34 7.93-11.9 13.6-3.57 5.66-6.8 12.14-9.72 19.43-2.91 7.28-5.34 14.98-7.29 23.07h55.38c.65-3.88 1.3-7.93 1.94-12.14.65-3.56 1.22-7.45 1.7-11.66.49-4.21.73-8.1.73-11.66zM2170.02 1192.3c-13.6 5.51-27.93 9.47-42.99 11.9-15.06 2.43-32.14 3.65-51.25 3.65-16.84 0-32.3-1.71-46.39-5.11-14.09-3.4-26.31-8.82-36.68-16.27-10.36-7.45-18.46-17.08-24.29-28.9-5.83-11.82-8.74-26.15-8.74-42.99 0-17.49 2.99-33.76 8.99-48.82 5.99-15.06 15.06-28.26 27.2-39.59 12.14-11.34 27.61-20.24 46.39-26.722 18.78-6.477 41.13-9.715 67.04-9.715 21.05 0 39.34 1.7 54.89 5.1 15.54 3.401 28.34 11.097 38.38 23.077l-13.61 62.18h-66.06c.32-5.51.65-10.37.97-14.58.32-4.21.49-8.9.49-14.08 0-10.37-1.14-17.74-3.41-22.11-2.26-4.37-5.99-6.56-11.17-6.56-9.06 0-17 4.46-23.8 13.36-6.8 8.91-12.39 19.6-16.76 32.06-4.37 12.47-7.61 25.59-9.71 39.35-2.11 13.77-3.16 25.51-3.16 35.22 0 3.56.16 7.21.48 10.93.33 3.72 1.06 7.21 2.19 10.44 1.13 3.24 2.67 5.83 4.61 7.78 1.95 1.94 4.7 2.91 8.26 2.91 3.24 0 6.97-.97 11.18-2.91 4.21-1.95 8.25-4.94 12.14-8.99 3.89-4.05 7.61-9.31 11.17-15.79 3.56-6.47 6.32-14.25 8.26-23.31h69.47l-14.09 68.49z"/><path d="M2170.02 1192.3c-13.6 5.51-27.93 9.47-42.99 11.9-15.06 2.43-32.14 3.65-51.25 3.65-16.84 0-32.3-1.71-46.39-5.11-14.09-3.4-26.31-8.82-36.68-16.27-10.36-7.45-18.46-17.08-24.29-28.9-5.83-11.82-8.74-26.15-8.74-42.99 0-17.49 2.99-33.76 8.99-48.82 5.99-15.06 15.06-28.26 27.2-39.59 12.14-11.34 27.61-20.24 46.39-26.722 18.78-6.477 41.13-9.715 67.04-9.715 21.05 0 39.34 1.7 54.89 5.1 15.54 3.401 28.34 11.097 38.38 23.077l-13.61 62.18h-66.06c.32-5.51.65-10.37.97-14.58.32-4.21.49-8.9.49-14.08 0-10.37-1.14-17.74-3.41-22.11-2.26-4.37-5.99-6.56-11.17-6.56-9.06 0-17 4.46-23.8 13.36-6.8 8.91-12.39 19.6-16.76 32.06-4.37 12.47-7.61 25.59-9.71 39.35-2.11 13.77-3.16 25.51-3.16 35.22 0 3.56.16 7.21.48 10.93.33 3.72 1.06 7.21 2.19 10.44 1.13 3.24 2.67 5.83 4.61 7.78 1.95 1.94 4.7 2.91 8.26 2.91 3.24 0 6.97-.97 11.18-2.91 4.21-1.95 8.25-4.94 12.14-8.99 3.89-4.05 7.61-9.31 11.17-15.79 3.56-6.47 6.32-14.25 8.26-23.31h69.47l-14.09 68.49zM2301.18 1203.96h-98.61l44.2-208.884h99.58l-45.17 208.884zm57.8-272.52c0 7.449-1.53 13.926-4.61 19.431-3.08 5.505-7.13 10.201-12.15 14.087-5.02 3.887-10.76 6.801-17.24 8.744a68.988 68.988 0 01-19.92 2.915c-12.95 0-23.8-3.077-32.54-9.23-8.75-6.153-13.12-15.868-13.12-29.146 0-7.125 1.46-13.521 4.37-19.188 2.92-5.667 6.88-10.363 11.9-14.088 5.02-3.724 10.85-6.557 17.49-8.501 6.64-1.943 13.52-2.914 20.65-2.914 12.63 0 23.31 3.076 32.06 9.229 8.74 6.154 13.11 15.707 13.11 28.661z"/><path d="M2301.18 1203.96h-98.61l44.2-208.884h99.58l-45.17 208.884zm57.8-272.52c0 7.449-1.53 13.926-4.61 19.431-3.08 5.505-7.13 10.201-12.15 14.087-5.02 3.887-10.76 6.801-17.24 8.744a68.988 68.988 0 01-19.92 2.915c-12.95 0-23.8-3.077-32.54-9.23-8.75-6.153-13.12-15.868-13.12-29.146 0-7.125 1.46-13.521 4.37-19.188 2.92-5.667 6.88-10.363 11.9-14.088 5.02-3.724 10.85-6.557 17.49-8.501 6.64-1.943 13.52-2.914 20.65-2.914 12.63 0 23.31 3.076 32.06 9.229 8.74 6.154 13.11 15.707 13.11 28.661zM2372.1 995.076h37.4l4.38-19.916c4.21-19.431 10.93-35.867 20.16-49.306 9.22-13.44 20.4-24.37 33.51-32.79 13.12-8.42 27.69-14.492 43.72-18.216 16.03-3.725 32.95-5.587 50.77-5.587 15.87 0 31.01 1.458 45.42 4.372 14.41 2.915 29.87 7.611 46.39 14.088l-15.55 48.091c-10.36-4.534-20.64-8.177-30.84-10.93s-21.13-4.129-32.79-4.129c-6.16 0-12.31.486-18.46 1.457-6.16.972-11.82 2.834-17.01 5.587-5.18 2.752-9.71 6.639-13.6 11.658-3.88 5.02-6.8 11.578-8.74 19.674l-7.77 35.947h160.3l-44.69 208.884h-99.1l37.41-176.34h-60.72l-37.89 176.34h-98.62l36.92-176.34h-37.4l6.8-32.544z"/><path d="M2372.1 995.076h37.4l4.38-19.916c4.21-19.431 10.93-35.867 20.16-49.306 9.22-13.44 20.4-24.37 33.51-32.79 13.12-8.42 27.69-14.492 43.72-18.216 16.03-3.725 32.95-5.587 50.77-5.587 15.87 0 31.01 1.458 45.42 4.372 14.41 2.915 29.87 7.611 46.39 14.088l-15.55 48.091c-10.36-4.534-20.64-8.177-30.84-10.93s-21.13-4.129-32.79-4.129c-6.16 0-12.31.486-18.46 1.457-6.16.972-11.82 2.834-17.01 5.587-5.18 2.752-9.71 6.639-13.6 11.658-3.88 5.02-6.8 11.578-8.74 19.674l-7.77 35.947h160.3l-44.69 208.884h-99.1l37.41-176.34h-60.72l-37.89 176.34h-98.62l36.92-176.34h-37.4l6.8-32.544zM2778.69 1106.32c-1.29 7.12-2.18 13.92-2.67 20.4-.49 6.48-.73 12.31-.73 17.49 0 2.91.16 6.15.49 9.71.32 3.57 1.05 6.89 2.18 9.96 1.14 3.08 2.76 5.67 4.86 7.77 2.11 2.11 5.1 3.16 8.99 3.16 2.91 0 6.23-.97 9.95-2.91 3.73-1.95 7.45-4.7 11.18-8.26 3.72-3.56 7.28-7.94 10.68-13.12 3.41-5.18 6.08-11.01 8.02-17.48h79.67l-12.63 51.97c-6.48 4.21-13.93 7.78-22.35 10.69-8.42 2.92-17.32 5.26-26.72 7.04-9.39 1.79-18.94 3.08-28.66 3.89-9.71.81-18.94 1.22-27.69 1.22-16.19 0-31.25-1.46-45.17-4.38-13.93-2.91-26.07-7.93-36.43-15.06-10.37-7.12-18.55-16.59-24.54-28.41-5.99-11.82-8.98-26.48-8.98-43.97 0-15.87 2.51-31.41 7.53-46.63 5.01-15.22 13.44-28.74 25.26-40.56 11.82-11.82 27.69-21.3 47.6-28.42 19.92-7.125 44.77-10.687 74.57-10.687 32.38 0 56.75 5.019 73.11 15.057 16.35 10.04 24.53 25.75 24.53 47.12 0 8.75-1.3 18.22-3.89 28.42-2.59 10.2-6.47 18.86-11.66 25.99h-136.5zm64.61-57.81c0-10.04-1.62-16.84-4.86-20.4-3.24-3.56-7.12-5.35-11.66-5.35-5.18 0-9.96 1.7-14.33 5.11-4.37 3.4-8.34 7.93-11.9 13.6-3.56 5.66-6.8 12.14-9.71 19.43-2.92 7.28-5.35 14.98-7.29 23.07h55.38c.65-3.88 1.29-7.93 1.94-12.14.65-3.56 1.21-7.45 1.7-11.66s.73-8.1.73-11.66z"/><path d="M2778.69 1106.32c-1.29 7.12-2.18 13.92-2.67 20.4-.49 6.48-.73 12.31-.73 17.49 0 2.91.16 6.15.49 9.71.32 3.57 1.05 6.89 2.18 9.96 1.14 3.08 2.76 5.67 4.86 7.77 2.11 2.11 5.1 3.16 8.99 3.16 2.91 0 6.23-.97 9.95-2.91 3.73-1.95 7.45-4.7 11.18-8.26 3.72-3.56 7.28-7.94 10.68-13.12 3.41-5.18 6.08-11.01 8.02-17.48h79.67l-12.63 51.97c-6.48 4.21-13.93 7.78-22.35 10.69-8.42 2.92-17.32 5.26-26.72 7.04-9.39 1.79-18.94 3.08-28.66 3.89-9.71.81-18.94 1.22-27.69 1.22-16.19 0-31.25-1.46-45.17-4.38-13.93-2.91-26.07-7.93-36.43-15.06-10.37-7.12-18.55-16.59-24.54-28.41-5.99-11.82-8.98-26.48-8.98-43.97 0-15.87 2.51-31.41 7.53-46.63 5.01-15.22 13.44-28.74 25.26-40.56 11.82-11.82 27.69-21.3 47.6-28.42 19.92-7.125 44.77-10.687 74.57-10.687 32.38 0 56.75 5.019 73.11 15.057 16.35 10.04 24.53 25.75 24.53 47.12 0 8.75-1.3 18.22-3.89 28.42-2.59 10.2-6.47 18.86-11.66 25.99h-136.5zm64.61-57.81c0-10.04-1.62-16.84-4.86-20.4-3.24-3.56-7.12-5.35-11.66-5.35-5.18 0-9.96 1.7-14.33 5.11-4.37 3.4-8.34 7.93-11.9 13.6-3.56 5.66-6.8 12.14-9.71 19.43-2.92 7.28-5.35 14.98-7.29 23.07h55.38c.65-3.88 1.29-7.93 1.94-12.14.65-3.56 1.21-7.45 1.7-11.66s.73-8.1.73-11.66zM3140.59 877.519h99.59l-69.47 326.441h-78.7l-8.74-31.09h-3.4c-1.94 2.91-4.94 6.4-8.99 10.44-4.04 4.05-9.15 7.94-15.3 11.66-6.15 3.73-13.44 6.8-21.86 9.23-8.42 2.43-18.13 3.65-29.14 3.65-11.34 0-20.97-1.71-28.91-5.11-7.93-3.4-14.41-8.01-19.43-13.84s-8.66-12.87-10.93-21.13c-2.27-8.26-3.4-17.25-3.4-26.96 0-4.21.32-10.93.97-20.16.65-9.23 2.19-19.43 4.62-30.6 2.43-11.18 5.99-22.67 10.68-34.49 4.7-11.83 11.02-22.59 18.95-32.31 7.93-9.71 17.73-17.73 29.39-24.045 11.66-6.315 25.74-9.472 42.26-9.472 5.18 0 10.69.486 16.52 1.457a61.414 61.414 0 0116.76 5.344c5.34 2.59 10.12 6.316 14.33 11.176 4.21 4.85 7.28 11.17 9.23 18.94h3.4l31.57-149.131zm-59.26 159.821c-7.77 0-14.25 4.29-19.43 12.87-5.18 8.58-9.39 18.54-12.63 29.88-3.24 11.33-5.59 22.67-7.05 34-1.46 11.33-2.18 19.76-2.18 25.26 0 6.48.97 11.9 2.91 16.27 1.94 4.38 5.67 6.56 11.17 6.56 3.24 0 6.4-.73 9.48-2.18 3.07-1.46 5.99-3.24 8.74-5.35 2.75-2.1 5.1-4.29 7.04-6.55 1.95-2.27 3.57-4.22 4.86-5.83l18.95-88.41c-2.27-3.57-5.26-7.21-8.99-10.94-3.72-3.72-8.02-5.58-12.87-5.58z"/><path d="M3140.59 877.519h99.59l-69.47 326.441h-78.7l-8.74-31.09h-3.4c-1.94 2.91-4.94 6.4-8.99 10.44-4.04 4.05-9.15 7.94-15.3 11.66-6.15 3.73-13.44 6.8-21.86 9.23-8.42 2.43-18.13 3.65-29.14 3.65-11.34 0-20.97-1.71-28.91-5.11-7.93-3.4-14.41-8.01-19.43-13.84s-8.66-12.87-10.93-21.13c-2.27-8.26-3.4-17.25-3.4-26.96 0-4.21.32-10.93.97-20.16.65-9.23 2.19-19.43 4.62-30.6 2.43-11.18 5.99-22.67 10.68-34.49 4.7-11.83 11.02-22.59 18.95-32.31 7.93-9.71 17.73-17.73 29.39-24.045 11.66-6.315 25.74-9.472 42.26-9.472 5.18 0 10.69.486 16.52 1.457a61.414 61.414 0 0116.76 5.344c5.34 2.59 10.12 6.316 14.33 11.176 4.21 4.85 7.28 11.17 9.23 18.94h3.4l31.57-149.131zm-59.26 159.821c-7.77 0-14.25 4.29-19.43 12.87-5.18 8.58-9.39 18.54-12.63 29.88-3.24 11.33-5.59 22.67-7.05 34-1.46 11.33-2.18 19.76-2.18 25.26 0 6.48.97 11.9 2.91 16.27 1.94 4.38 5.67 6.56 11.17 6.56 3.24 0 6.4-.73 9.48-2.18 3.07-1.46 5.99-3.24 8.74-5.35 2.75-2.1 5.1-4.29 7.04-6.55 1.95-2.27 3.57-4.22 4.86-5.83l18.95-88.41c-2.27-3.57-5.26-7.21-8.99-10.94-3.72-3.72-8.02-5.58-12.87-5.58z"/></g><g><path d="M2805.78 645.605l618.86-.781c32.8-.042 59.27 38.304 59.12 85.645l-2.23 698.151c-.15 47.34-26.87 85.75-59.67 85.79l-610.38.77" fill="none" stroke="#c3996b" stroke-width="25"/><path fill="#c3996b" d="M1009.37 633.051H2880.6v24.972H1009.37z"/><path d="M1032.58 1515.08H413.719c-32.804 0-59.398-38.38-59.398-85.72V731.223c0-47.341 26.594-85.719 59.398-85.719h610.391" fill="none" stroke="#c3996b" stroke-width="25" stroke-linejoin="round" stroke-miterlimit="25"/><g fill="#c3996b" fill-rule="nonzero"><path d="M1350.24 1541.81c0 3.74-.11 7.11-.34 10.13-.23 3.02-.65 5.78-1.25 8.28-.61 2.5-1.25 4.7-1.94 6.6-.69 1.9-1.67 3.58-2.93 5.05-1.27 1.46-2.52 2.71-3.76 3.75-1.23 1.03-2.84 1.91-4.83 2.63a50.24 50.24 0 01-5.73 1.72c-1.84.43-4.14.77-6.9 1-2.76.23-5.39.38-7.9.47-2.5.09-5.56.13-9.18.13-6.84 0-12.58-.2-17.21-.6-4.63-.41-8.57-1.27-11.82-2.59-3.24-1.32-5.76-2.69-7.54-4.1-1.79-1.41-3.19-3.65-4.23-6.73-1.03-3.07-1.71-6.02-2.03-8.84-.31-2.82-.58-6.81-.81-11.99l15.95-2.58c.17 1.26.35 3.04.52 5.34.34 3.57.68 6.08.99 7.55.32 1.47.94 3.09 1.85 4.87.93 1.79 2.36 2.95 4.32 3.5 1.95.54 4.51 1.02 7.67 1.42 3.17.4 7.39.6 12.68.6 4.37 0 7.97-.11 10.79-.34 2.81-.23 5.28-.7 7.41-1.42s3.74-1.54 4.83-2.46c1.09-.92 1.97-2.35 2.63-4.27a24.73 24.73 0 001.25-6c.18-2.07.23-4.83.18-8.28-.06-7.59-.48-12.83-1.25-15.74-.78-2.9-2.43-4.61-4.96-5.13l-42.96-7.5c-7.47-1.27-12.68-4.12-15.61-8.54-2.93-4.43-4.48-11.59-4.66-21.48 0-5.29.28-9.82.82-13.58.55-3.77 1.5-7.08 2.85-9.92 1.35-2.85 3.02-5.14 5-6.86 1.99-1.73 4.6-3.12 7.85-4.18 3.25-1.07 6.82-1.79 10.7-2.16 3.88-.37 8.64-.56 14.27-.56 4.6 0 8.55.1 11.86.3 3.31.2 6.53.56 9.66 1.08 3.14.52 5.74 1.24 7.81 2.16 2.07.92 3.98 2.11 5.73 3.58 1.76 1.46 3.12 3.24 4.1 5.34.98 2.1 1.73 4.56 2.24 7.38.52 2.81.78 6.06.78 9.74l-15.35 3.54c-.58-6.32-.95-9.92-1.13-10.78-.69-2.93-2.32-4.92-4.91-5.95-2.88-1.21-8.89-1.81-18.03-1.81-5 0-9.13.14-12.38.43-3.24.29-5.9.7-7.97 1.25-2.07.55-3.61 1.36-4.62 2.46-1 1.09-1.68 2.25-2.03 3.49-.34 1.24-.51 2.86-.51 4.87v14.93c0 5.4 2.35 8.51 7.07 9.31l30.88 5.26c2.87.46 5.17.86 6.9 1.21 1.72.34 3.71.8 5.95 1.38 2.24.57 4 1.18 5.26 1.81 1.27.63 2.67 1.44 4.23 2.41 1.55.98 2.76 2.07 3.62 3.28.86 1.21 1.74 2.65 2.63 4.32.89 1.66 1.55 3.55 1.98 5.64.43 2.1.8 4.49 1.08 7.16.29 2.68.43 5.68.43 9.02zM1438.63 1581.57c-5 0-9.44-.12-13.32-.35-3.88-.23-7.46-.79-10.74-1.68-3.28-.89-6.08-1.71-8.41-2.46-2.33-.74-4.43-2.17-6.3-4.26-1.86-2.1-3.4-3.92-4.61-5.44-1.21-1.52-2.24-4.05-3.11-7.59-.86-3.54-1.49-6.55-1.89-9.06-.4-2.5-.74-6.36-.99-11.6-.26-5.23-.41-9.71-.44-13.45-.02-3.74-.04-9.14-.04-16.22 0-8.51.23-15.58.69-21.22.46-5.63 1.37-10.86 2.72-15.69s3.13-8.63 5.35-11.39c2.21-2.76 5.23-5.13 9.05-7.11 3.83-1.99 8.28-3.34 13.37-4.06 5.09-.72 11.32-1.08 18.67-1.08 6.96 0 12.91.35 17.86 1.04 4.94.69 9.33 1.91 13.15 3.66 3.83 1.76 6.9 3.94 9.23 6.56 2.33 2.62 4.24 6.05 5.74 10.31 1.49 4.25 2.51 9.01 3.06 14.27.54 5.26.82 11.66.82 19.19 0 21.28-.32 35.28-.95 42.01-1.09 11.5-3.74 19.72-7.93 24.67-4.43 5.28-11.97 8.62-22.6 10-5.06.63-11.19.95-18.38.95zm12.34-119.03c-3.28-.23-7.39-.34-12.34-.34-4.94 0-9.05.11-12.33.34-3.28.23-6.14.72-8.58 1.47-2.44.75-4.33 1.58-5.65 2.5-1.32.92-2.4 2.34-3.23 4.27-.84 1.92-1.39 3.89-1.64 5.91-.26 2.01-.45 4.74-.57 8.19-.17 10.64-.25 21.33-.25 32.09 0 16.21.43 27.31 1.29 33.29 1.38 8.97 4 14.14 7.85 15.53 2.87 1.66 10.58 2.5 23.11 2.5 12.54 0 20.25-.84 23.12-2.5 1.09-.41 2.09-1.07 2.98-1.99.89-.92 1.64-2.16 2.24-3.71.6-1.55 1.13-3.12 1.59-4.7.46-1.58.84-3.61 1.13-6.08.28-2.47.51-4.7.69-6.68.17-1.99.28-4.52.34-7.59.06-3.08.1-5.62.13-7.64.03-2.01.04-4.68.04-8.02 0-11.61-.08-23.11-.26-34.5-.11-3.45-.3-6.18-.56-8.19-.25-2.02-.8-3.99-1.64-5.91-.83-1.93-1.91-3.35-3.23-4.27-1.32-.92-3.2-1.75-5.65-2.5-2.44-.75-5.3-1.24-8.58-1.47zM1602.84 1464.27h-53.04v41.91h45.19v13.98h-45.19v59.34h-17.51v-128.52h68.83l1.72 13.29zM1709.43 1464.27h-33.55v115.23h-17.51v-115.23h-32.86v-13.29h83.92v13.29zM1872.95 1450.98l-27.26 128.52h-18.71l-24.5-101.17-24.32 101.17h-18.63l-28.29-128.52h18.45l20.19 104.45 24.58-104.45h17.34l25.27 104.45 19.66-104.45h16.22zM1996.53 1579.5h-17.77l-9.74-32.86h-47.53l-9.4 32.86h-16.82l39.42-128.52h23.37l38.47 128.52zm-31.14-45.28l-10.86-38.56-8.97-31.57c-3.34 11.91-6.27 22.14-8.8 30.71l-11.56 39.42h40.19zM2121.67 1486.35c0 10.98-2.07 19.13-6.21 24.45-4.14 5.32-9.92 8.58-17.34 9.79 11.04 2.24 17.6 9.26 19.66 21.04l6.65 37.87h-18.72c-.46-2.65-.99-6.48-1.6-11.51-.6-5.04-1.16-9.29-1.68-12.77-.52-3.48-1.21-7.17-2.07-11.08-.86-3.91-2-7.19-3.41-9.84-1.4-2.64-3.09-4.6-5.04-5.86-3.11-1.32-8.19-1.99-15.27-1.99h-26.65v53.05h-17.42v-128.52h39.24c4.14 0 7.66.05 10.57.13 2.9.09 5.96.28 9.18.56 3.22.29 5.93.69 8.11 1.21 2.19.52 4.42 1.21 6.69 2.07 2.27.86 4.14 1.93 5.6 3.19 1.47 1.27 2.86 2.78 4.19 4.53 1.32 1.75 2.35 3.77 3.1 6.04s1.34 4.87 1.77 7.8c.43 2.94.65 6.21.65 9.84zm-17.26 6.81v-11.99c0-2.18-.04-3.89-.12-5.13-.09-1.24-.31-2.56-.65-3.97-.35-1.41-.88-2.47-1.6-3.19-.72-.72-1.66-1.44-2.84-2.15-1.18-.72-2.71-1.23-4.57-1.52-1.87-.28-4.06-.53-6.56-.73-2.5-.2-5.5-.3-9.01-.3h-29.07v48.56h30.1c4.43 0 8.08-.23 10.96-.69 2.87-.46 5.21-1.11 7.03-1.94 1.81-.83 3.17-2.1 4.09-3.8.92-1.69 1.53-3.5 1.81-5.43.29-1.93.43-4.5.43-7.72zM2237.31 1579.5h-72.79v-128.52h72.02l1.72 13.29h-56.23v41.31h48.04v13.97h-48.04v46.75h57.01l-1.73 13.2zM2429.62 1539.65l15.01 2.24c-.29 5.52-.77 10.22-1.47 14.11-.69 3.88-1.71 7.34-3.06 10.39-1.35 3.05-3 5.5-4.96 7.37-1.95 1.87-4.47 3.41-7.54 4.62-3.08 1.21-6.53 2.04-10.35 2.5-3.83.46-8.44.69-13.85.69-5.17 0-9.8-.13-13.88-.39-4.09-.26-7.81-.83-11.17-1.72-3.37-.89-6.3-1.76-8.8-2.59-2.5-.83-4.72-2.23-6.64-4.19-1.93-1.95-3.54-3.7-4.83-5.26-1.3-1.55-2.39-3.92-3.28-7.11-.89-3.19-1.57-6-2.03-8.41-.46-2.42-.82-5.92-1.07-10.52-.26-4.6-.42-8.63-.48-12.08-.06-3.45-.09-8.22-.09-14.32 0-6.44.03-11.61.09-15.52s.23-8.17.52-12.77c.29-4.6.65-8.16 1.08-10.69.43-2.53 1.12-5.31 2.07-8.33.95-3.02 2.02-5.26 3.23-6.72 1.21-1.47 2.79-3.07 4.74-4.79 1.96-1.73 4.1-2.92 6.43-3.58 2.33-.66 5.16-1.34 8.5-2.03 3.33-.69 6.91-1.12 10.73-1.29 3.83-.17 8.27-.26 13.33-.26 5.23 0 9.69.19 13.37.56 3.68.37 7.13 1.09 10.35 2.16 3.22 1.06 5.86 2.47 7.94 4.22 2.07 1.76 3.89 4.04 5.47 6.86 1.58 2.82 2.8 6.14 3.67 9.96.86 3.83 1.49 8.41 1.9 13.76l-15.1 2.93c-.29-2.93-.54-5.37-.77-7.33-.23-1.95-.57-3.88-1-5.78-.43-1.9-.77-3.43-1.03-4.61-.26-1.18-.79-2.33-1.6-3.45-.8-1.12-1.45-1.97-1.94-2.55-.49-.57-1.39-1.12-2.72-1.64-1.32-.51-2.42-.87-3.32-1.07-.89-.21-2.35-.39-4.39-.57-2.05-.17-3.81-.25-5.31-.25h-6.55c-4.03 0-7.32.04-9.88.13-2.56.08-5.12.28-7.68.6-2.56.32-4.57.78-6.04 1.38-1.46.6-2.83 1.41-4.09 2.42-1.27 1-2.17 2.24-2.72 3.7-.54 1.47-.88 3.24-.99 5.31-.52 15.18-.78 30.67-.78 46.49 0 11.04.26 21.82.78 32.34.29 3.28 1.22 5.84 2.8 7.68 1.58 1.84 4.66 3.31 9.23 4.4 4.57 1.09 11.06 1.64 19.45 1.64 4.49 0 8.25-.13 11.3-.39 3.05-.26 5.61-.86 7.68-1.81 2.07-.95 3.65-1.81 4.74-2.59 1.09-.78 1.97-2.29 2.63-4.53.66-2.24 1.09-4.12 1.3-5.65.2-1.52.41-4.12.64-7.8l.26-3.76c.06-.77.12-1.48.17-2.11zM2532.76 1581.57c-5 0-9.44-.12-13.32-.35-3.88-.23-7.46-.79-10.74-1.68-3.28-.89-6.08-1.71-8.41-2.46-2.33-.74-4.43-2.17-6.3-4.26-1.87-2.1-3.4-3.92-4.61-5.44-1.21-1.52-2.24-4.05-3.11-7.59-.86-3.54-1.49-6.55-1.89-9.06-.41-2.5-.74-6.36-.99-11.6-.26-5.23-.41-9.71-.44-13.45-.02-3.74-.04-9.14-.04-16.22 0-8.51.23-15.58.69-21.22.46-5.63 1.37-10.86 2.72-15.69s3.13-8.63 5.34-11.39c2.22-2.76 5.24-5.13 9.06-7.11 3.83-1.99 8.28-3.34 13.37-4.06 5.09-.72 11.31-1.08 18.67-1.08 6.96 0 12.91.35 17.86 1.04 4.94.69 9.33 1.91 13.15 3.66 3.83 1.76 6.9 3.94 9.23 6.56 2.33 2.62 4.24 6.05 5.74 10.31 1.49 4.25 2.51 9.01 3.06 14.27.55 5.26.82 11.66.82 19.19 0 21.28-.32 35.28-.95 42.01-1.09 11.5-3.74 19.72-7.94 24.67-4.42 5.28-11.96 8.62-22.59 10-5.06.63-11.19.95-18.38.95zm12.34-119.03c-3.28-.23-7.39-.34-12.34-.34-4.94 0-9.05.11-12.33.34-3.28.23-6.14.72-8.58 1.47-2.45.75-4.33 1.58-5.65 2.5-1.32.92-2.4 2.34-3.24 4.27-.83 1.92-1.38 3.89-1.63 5.91-.26 2.01-.45 4.74-.57 8.19-.17 10.64-.25 21.33-.25 32.09 0 16.21.43 27.31 1.29 33.29 1.38 8.97 4 14.14 7.85 15.53 2.87 1.66 10.58 2.5 23.11 2.5 12.54 0 20.24-.84 23.12-2.5 1.09-.41 2.08-1.07 2.98-1.99.89-.92 1.63-2.16 2.24-3.71.6-1.55 1.13-3.12 1.59-4.7.46-1.58.84-3.61 1.13-6.08.28-2.47.51-4.7.69-6.68.17-1.99.28-4.52.34-7.59.06-3.08.1-5.62.13-7.64.03-2.01.04-4.68.04-8.02 0-11.61-.08-23.11-.26-34.5-.11-3.45-.3-6.18-.56-8.19-.26-2.02-.8-3.99-1.64-5.91-.83-1.93-1.91-3.35-3.23-4.27-1.32-.92-3.21-1.75-5.65-2.5-2.44-.75-5.3-1.24-8.58-1.47z"/></g><g fill="#fff" fill-rule="nonzero"><path d="M714.203 1098.99c-1.62 7.12-2.915 13.28-3.887 18.46-.971 5.18-1.457 10.04-1.457 14.57 0 11.34 3.967 20.4 11.902 27.2 7.934 6.8 19.673 10.2 35.218 10.2 11.335 0 20.645-1.94 27.932-5.82 7.287-3.89 13.278-9.07 17.974-15.55 4.695-6.48 8.42-13.93 11.172-22.35 2.753-8.41 5.101-17.32 7.044-26.71l41.291-198.198h44.205l-42.262 199.168c-3.239 15.54-7.935 30.12-14.088 43.72-6.153 13.6-14.978 25.58-26.474 35.95-11.497 10.36-26.313 18.54-44.448 24.53-18.136 5.99-40.643 8.98-67.523 8.98-37.242 0-64.769-6.07-82.581-18.21-17.812-12.15-26.718-30.85-26.718-56.11 0-11.33 1.458-25.74 4.372-43.23 2.915-17.49 6.639-36.44 11.173-56.84l29.632-137.958h110.271l-42.748 198.198z"/><path d="M714.203 1098.99c-1.62 7.12-2.915 13.28-3.887 18.46-.971 5.18-1.457 10.04-1.457 14.57 0 11.34 3.967 20.4 11.902 27.2 7.934 6.8 19.673 10.2 35.218 10.2 11.335 0 20.645-1.94 27.932-5.82 7.287-3.89 13.278-9.07 17.974-15.55 4.695-6.48 8.42-13.93 11.172-22.35 2.753-8.41 5.101-17.32 7.044-26.71l41.291-198.198h44.205l-42.262 199.168c-3.239 15.54-7.935 30.12-14.088 43.72-6.153 13.6-14.978 25.58-26.474 35.95-11.497 10.36-26.313 18.54-44.448 24.53-18.136 5.99-40.643 8.98-67.523 8.98-37.242 0-64.769-6.07-82.581-18.21-17.812-12.15-26.718-30.85-26.718-56.11 0-11.33 1.458-25.74 4.372-43.23 2.915-17.49 6.639-36.44 11.173-56.84l29.632-137.958h110.271l-42.748 198.198zM1018.3 1031.46c6.8-6.47 14.41-12.46 22.83-17.97 7.45-4.53 16.19-8.74 26.23-12.63 10.04-3.885 21.21-5.828 33.52-5.828 16.84 0 30.76 4.291 41.77 12.868 11.01 8.59 16.52 20.33 16.52 35.22 0 4.21-.49 9.31-1.46 15.3-.97 6-2.1 12.23-3.4 18.71-1.29 6.48-2.67 13.03-4.13 19.67-1.45 6.64-2.67 12.55-3.64 17.73l-20.4 94.73h-98.61l26.71-126.79c.65-4.21 1.46-8.5 2.43-12.87.97-4.37 1.46-8.34 1.46-11.9 0-4.86-1.22-8.83-3.64-11.9-2.43-3.08-6.08-4.62-10.93-4.62-5.83 0-11.42 2.11-16.76 6.32-5.35 4.21-9.47 7.77-12.39 10.68l-32.061 151.08h-99.098l44.206-208.88h79.183l8.74 31.08h2.92z"/><path d="M1018.3 1031.46c6.8-6.47 14.41-12.46 22.83-17.97 7.45-4.53 16.19-8.74 26.23-12.63 10.04-3.885 21.21-5.828 33.52-5.828 16.84 0 30.76 4.291 41.77 12.868 11.01 8.59 16.52 20.33 16.52 35.22 0 4.21-.49 9.31-1.46 15.3-.97 6-2.1 12.23-3.4 18.71-1.29 6.48-2.67 13.03-4.13 19.67-1.45 6.64-2.67 12.55-3.64 17.73l-20.4 94.73h-98.61l26.71-126.79c.65-4.21 1.46-8.5 2.43-12.87.97-4.37 1.46-8.34 1.46-11.9 0-4.86-1.22-8.83-3.64-11.9-2.43-3.08-6.08-4.62-10.93-4.62-5.83 0-11.42 2.11-16.76 6.32-5.35 4.21-9.47 7.77-12.39 10.68l-32.061 151.08h-99.098l44.206-208.88h79.183l8.74 31.08h2.92zM1321.9 1061.58c.33-1.62.65-3.24.98-4.86.32-1.61.48-3.39.48-5.34 0-5.83-1.05-11.25-3.16-16.27-2.1-5.02-6.23-7.53-12.38-7.53-5.51 0-11.01 2.35-16.52 7.04-5.5 4.7-8.26 10.93-8.26 18.71 0 5.18 1.38 9.3 4.13 12.38s6.4 5.59 10.93 7.53c4.53 1.94 9.64 3.56 15.3 4.86 5.67 1.29 11.26 2.59 16.76 3.89 7.77 1.94 15.14 4.29 22.11 7.04 6.96 2.75 13.19 6.39 18.7 10.93 5.5 4.53 9.87 10.12 13.11 16.76 3.24 6.64 4.86 14.81 4.86 24.53 0 13.6-3.16 25.02-9.47 34.25-6.32 9.23-15.06 16.67-26.23 22.34-11.18 5.67-24.29 9.64-39.35 11.9-15.06 2.27-31.17 3.4-48.34 3.4-26.23 0-47.93-1.94-65.09-5.82-17.16-3.89-29.15-7.62-35.95-11.18l10.2-48.57h65.58c-.32 1.61-.48 3.15-.48 4.61v4.61c0 7.45 1.7 13.36 5.1 17.74 3.4 4.37 9.31 6.55 17.73 6.55 9.39 0 16.11-2.67 20.16-8.01 4.05-5.35 6.07-10.28 6.07-14.82 0-4.53-1.7-8.5-5.1-11.9-3.4-3.4-7.69-6.31-12.87-8.74-5.18-2.43-10.93-4.54-17.25-6.32-6.31-1.78-12.38-3.48-18.21-5.1-4.21-.97-8.99-2.59-14.33-4.86-5.35-2.26-10.45-5.5-15.31-9.71-4.85-4.21-8.9-9.64-12.14-16.28-3.24-6.64-4.86-14.97-4.86-25.01 0-14.25 3.48-26.15 10.45-35.71 6.96-9.55 16.03-17.24 27.2-23.07 11.17-5.83 23.8-10.04 37.89-12.632a234.57 234.57 0 0142.51-3.886c17.81 0 34.65 1.619 50.52 4.858 15.86 3.24 28.82 7.45 38.86 12.63l-11.18 49.06h-63.15z"/><path d="M1321.9 1061.58c.33-1.62.65-3.24.98-4.86.32-1.61.48-3.39.48-5.34 0-5.83-1.05-11.25-3.16-16.27-2.1-5.02-6.23-7.53-12.38-7.53-5.51 0-11.01 2.35-16.52 7.04-5.5 4.7-8.26 10.93-8.26 18.71 0 5.18 1.38 9.3 4.13 12.38s6.4 5.59 10.93 7.53c4.53 1.94 9.64 3.56 15.3 4.86 5.67 1.29 11.26 2.59 16.76 3.89 7.77 1.94 15.14 4.29 22.11 7.04 6.96 2.75 13.19 6.39 18.7 10.93 5.5 4.53 9.87 10.12 13.11 16.76 3.24 6.64 4.86 14.81 4.86 24.53 0 13.6-3.16 25.02-9.47 34.25-6.32 9.23-15.06 16.67-26.23 22.34-11.18 5.67-24.29 9.64-39.35 11.9-15.06 2.27-31.17 3.4-48.34 3.4-26.23 0-47.93-1.94-65.09-5.82-17.16-3.89-29.15-7.62-35.95-11.18l10.2-48.57h65.58c-.32 1.61-.48 3.15-.48 4.61v4.61c0 7.45 1.7 13.36 5.1 17.74 3.4 4.37 9.31 6.55 17.73 6.55 9.39 0 16.11-2.67 20.16-8.01 4.05-5.35 6.07-10.28 6.07-14.82 0-4.53-1.7-8.5-5.1-11.9-3.4-3.4-7.69-6.31-12.87-8.74-5.18-2.43-10.93-4.54-17.25-6.32-6.31-1.78-12.38-3.48-18.21-5.1-4.21-.97-8.99-2.59-14.33-4.86-5.35-2.26-10.45-5.5-15.31-9.71-4.85-4.21-8.9-9.64-12.14-16.28-3.24-6.64-4.86-14.97-4.86-25.01 0-14.25 3.48-26.15 10.45-35.71 6.96-9.55 16.03-17.24 27.2-23.07 11.17-5.83 23.8-10.04 37.89-12.632a234.57 234.57 0 0142.51-3.886c17.81 0 34.65 1.619 50.52 4.858 15.86 3.24 28.82 7.45 38.86 12.63l-11.18 49.06h-63.15zM1486.1 1290.87H1387l61.2-290.49h79.19l8.74 31.08h2.91c11.66-12.3 24.7-21.13 39.11-26.47 14.41-5.343 28.58-8.015 42.5-8.015 11.34 0 20.81 1.7 28.42 5.105 7.61 3.4 13.68 8.01 18.22 13.84 4.53 5.83 7.77 12.79 9.71 20.89 1.95 8.09 2.92 16.68 2.92 25.74 0 4.54-.33 11.34-.97 20.41-.65 9.07-2.11 19.18-4.37 30.36-2.27 11.17-5.51 22.67-9.72 34.49-4.21 11.82-9.8 22.59-16.76 32.3-6.96 9.72-15.71 17.65-26.23 23.8-10.53 6.16-23.08 9.23-37.65 9.23-8.1 0-15.95-.97-23.56-2.91-7.61-1.94-14.49-4.54-20.64-7.77-6.16-3.24-11.58-7.05-16.28-11.42-4.69-4.37-8.17-8.82-10.44-13.36h-2.92l-24.28 113.19zm51.49-124.85c7.77 0 14.25-4.13 19.43-12.38 5.18-8.26 9.39-17.98 12.63-29.15 3.24-11.17 5.58-22.35 7.04-33.52 1.46-11.17 2.19-19.51 2.19-25.02 0-6.47-1.05-11.82-3.16-16.03-2.1-4.21-5.91-6.31-11.42-6.31-6.15 0-11.98 2.19-17.48 6.56-5.51 4.37-9.56 8.17-12.15 11.41l-18.94 88.9c2.59 3.56 5.66 7.04 9.23 10.44 3.56 3.4 7.77 5.1 12.63 5.1z"/><path d="M1486.1 1290.87H1387l61.2-290.49h79.19l8.74 31.08h2.91c11.66-12.3 24.7-21.13 39.11-26.47 14.41-5.343 28.58-8.015 42.5-8.015 11.34 0 20.81 1.7 28.42 5.105 7.61 3.4 13.68 8.01 18.22 13.84 4.53 5.83 7.77 12.79 9.71 20.89 1.95 8.09 2.92 16.68 2.92 25.74 0 4.54-.33 11.34-.97 20.41-.65 9.07-2.11 19.18-4.37 30.36-2.27 11.17-5.51 22.67-9.72 34.49-4.21 11.82-9.8 22.59-16.76 32.3-6.96 9.72-15.71 17.65-26.23 23.8-10.53 6.16-23.08 9.23-37.65 9.23-8.1 0-15.95-.97-23.56-2.91-7.61-1.94-14.49-4.54-20.64-7.77-6.16-3.24-11.58-7.05-16.28-11.42-4.69-4.37-8.17-8.82-10.44-13.36h-2.92l-24.28 113.19zm51.49-124.85c7.77 0 14.25-4.13 19.43-12.38 5.18-8.26 9.39-17.98 12.63-29.15 3.24-11.17 5.58-22.35 7.04-33.52 1.46-11.17 2.19-19.51 2.19-25.02 0-6.47-1.05-11.82-3.16-16.03-2.1-4.21-5.91-6.31-11.42-6.31-6.15 0-11.98 2.19-17.48 6.56-5.51 4.37-9.56 8.17-12.15 11.41l-18.94 88.9c2.59 3.56 5.66 7.04 9.23 10.44 3.56 3.4 7.77 5.1 12.63 5.1zM1798.93 1111.62c-1.29 7.12-2.18 13.92-2.67 20.4-.48 6.48-.73 12.31-.73 17.49 0 2.91.16 6.15.49 9.71.32 3.57 1.05 6.89 2.18 9.96 1.14 3.08 2.76 5.67 4.86 7.77 2.11 2.11 5.1 3.16 8.99 3.16 2.91 0 6.23-.97 9.96-2.91 3.72-1.95 7.44-4.7 11.17-8.26 3.72-3.56 7.29-7.94 10.69-13.12 3.4-5.18 6.07-11.01 8.01-17.48h79.67l-12.63 51.97c-6.48 4.21-13.93 7.78-22.35 10.69-8.42 2.91-17.32 5.26-26.71 7.04-9.4 1.78-18.95 3.08-28.67 3.89-9.71.81-18.94 1.21-27.68 1.21-16.2 0-31.26-1.45-45.18-4.37-13.93-2.91-26.07-7.93-36.43-15.06-10.37-7.12-18.54-16.59-24.54-28.41-5.99-11.82-8.98-26.48-8.98-43.97 0-15.87 2.51-31.41 7.53-46.63 5.02-15.22 13.44-28.74 25.26-40.56 11.82-11.82 27.69-21.3 47.6-28.42 19.92-7.126 44.78-10.688 74.57-10.688 32.38 0 56.75 5.018 73.11 15.058 16.35 10.04 24.53 25.75 24.53 47.12 0 8.74-1.3 18.22-3.89 28.42-2.59 10.2-6.47 18.86-11.66 25.99h-136.5zm64.61-57.81c0-10.04-1.62-16.84-4.86-20.4-3.24-3.56-7.12-5.34-11.66-5.34-5.18 0-9.95 1.7-14.33 5.09-4.37 3.41-8.34 7.94-11.9 13.61-3.56 5.66-6.8 12.14-9.71 19.43-2.92 7.28-5.35 14.98-7.29 23.07h55.38c.65-3.88 1.29-7.93 1.94-12.14.65-3.56 1.22-7.45 1.7-11.66.49-4.21.73-8.1.73-11.66z"/><path d="M1798.93 1111.62c-1.29 7.12-2.18 13.92-2.67 20.4-.48 6.48-.73 12.31-.73 17.49 0 2.91.16 6.15.49 9.71.32 3.57 1.05 6.89 2.18 9.96 1.14 3.08 2.76 5.67 4.86 7.77 2.11 2.11 5.1 3.16 8.99 3.16 2.91 0 6.23-.97 9.96-2.91 3.72-1.95 7.44-4.7 11.17-8.26 3.72-3.56 7.29-7.94 10.69-13.12 3.4-5.18 6.07-11.01 8.01-17.48h79.67l-12.63 51.97c-6.48 4.21-13.93 7.78-22.35 10.69-8.42 2.91-17.32 5.26-26.71 7.04-9.4 1.78-18.95 3.08-28.67 3.89-9.71.81-18.94 1.21-27.68 1.21-16.2 0-31.26-1.45-45.18-4.37-13.93-2.91-26.07-7.93-36.43-15.06-10.37-7.12-18.54-16.59-24.54-28.41-5.99-11.82-8.98-26.48-8.98-43.97 0-15.87 2.51-31.41 7.53-46.63 5.02-15.22 13.44-28.74 25.26-40.56 11.82-11.82 27.69-21.3 47.6-28.42 19.92-7.126 44.78-10.688 74.57-10.688 32.38 0 56.75 5.018 73.11 15.058 16.35 10.04 24.53 25.75 24.53 47.12 0 8.74-1.3 18.22-3.89 28.42-2.59 10.2-6.47 18.86-11.66 25.99h-136.5zm64.61-57.81c0-10.04-1.62-16.84-4.86-20.4-3.24-3.56-7.12-5.34-11.66-5.34-5.18 0-9.95 1.7-14.33 5.09-4.37 3.41-8.34 7.94-11.9 13.61-3.56 5.66-6.8 12.14-9.71 19.43-2.92 7.28-5.35 14.98-7.29 23.07h55.38c.65-3.88 1.29-7.93 1.94-12.14.65-3.56 1.22-7.45 1.7-11.66.49-4.21.73-8.1.73-11.66zM2174.43 1197.6c-13.6 5.51-27.93 9.47-42.99 11.9-15.05 2.43-32.14 3.64-51.24 3.64-16.85 0-32.31-1.7-46.4-5.1-14.08-3.4-26.31-8.82-36.67-16.27-10.37-7.45-18.46-17.08-24.29-28.9-5.83-11.82-8.74-26.15-8.74-42.99 0-17.49 2.99-33.77 8.98-48.82 5.99-15.06 15.06-28.26 27.21-39.6 12.14-11.33 27.6-20.24 46.39-26.71 18.78-6.479 41.12-9.718 67.03-9.718 21.05 0 39.35 1.7 54.9 5.098 15.54 3.4 28.33 11.09 38.37 23.08l-13.6 62.18h-66.07c.33-5.51.65-10.37.98-14.58.32-4.21.48-8.9.48-14.09 0-10.36-1.13-17.73-3.4-22.1-2.27-4.37-5.99-6.55-11.17-6.55-9.07 0-17 4.45-23.8 13.35-6.8 8.91-12.39 19.6-16.76 32.06-4.38 12.47-7.61 25.59-9.72 39.35-2.1 13.77-3.16 25.51-3.16 35.22 0 3.56.17 7.21.49 10.93.32 3.72 1.05 7.21 2.18 10.44 1.14 3.24 2.68 5.83 4.62 7.78 1.94 1.94 4.7 2.91 8.26 2.91 3.24 0 6.96-.97 11.17-2.91 4.21-1.95 8.26-4.94 12.14-8.99 3.89-4.05 7.62-9.31 11.18-15.79 3.56-6.48 6.31-14.25 8.26-23.31h69.46l-14.09 68.49z"/><path d="M2174.43 1197.6c-13.6 5.51-27.93 9.47-42.99 11.9-15.05 2.43-32.14 3.64-51.24 3.64-16.85 0-32.31-1.7-46.4-5.1-14.08-3.4-26.31-8.82-36.67-16.27-10.37-7.45-18.46-17.08-24.29-28.9-5.83-11.82-8.74-26.15-8.74-42.99 0-17.49 2.99-33.77 8.98-48.82 5.99-15.06 15.06-28.26 27.21-39.6 12.14-11.33 27.6-20.24 46.39-26.71 18.78-6.479 41.12-9.718 67.03-9.718 21.05 0 39.35 1.7 54.9 5.098 15.54 3.4 28.33 11.09 38.37 23.08l-13.6 62.18h-66.07c.33-5.51.65-10.37.98-14.58.32-4.21.48-8.9.48-14.09 0-10.36-1.13-17.73-3.4-22.1-2.27-4.37-5.99-6.55-11.17-6.55-9.07 0-17 4.45-23.8 13.35-6.8 8.91-12.39 19.6-16.76 32.06-4.38 12.47-7.61 25.59-9.72 39.35-2.1 13.77-3.16 25.51-3.16 35.22 0 3.56.17 7.21.49 10.93.32 3.72 1.05 7.21 2.18 10.44 1.14 3.24 2.68 5.83 4.62 7.78 1.94 1.94 4.7 2.91 8.26 2.91 3.24 0 6.96-.97 11.17-2.91 4.21-1.95 8.26-4.94 12.14-8.99 3.89-4.05 7.62-9.31 11.18-15.79 3.56-6.48 6.31-14.25 8.26-23.31h69.46l-14.09 68.49zM2305.59 1209.26h-98.61l44.21-208.88h99.58l-45.18 208.88zm57.81-272.521c0 7.449-1.54 13.926-4.62 19.431-3.07 5.506-7.12 10.202-12.14 14.088-5.02 3.886-10.77 6.801-17.24 8.744a68.987 68.987 0 01-19.92 2.914c-12.95 0-23.8-3.076-32.55-9.229-8.74-6.154-13.11-15.869-13.11-29.147 0-7.124 1.45-13.52 4.37-19.188 2.91-5.667 6.88-10.363 11.9-14.087 5.02-3.724 10.85-6.558 17.49-8.501 6.64-1.943 13.52-2.915 20.64-2.915 12.63 0 23.32 3.077 32.06 9.23 8.75 6.153 13.12 15.706 13.12 28.66z"/><path d="M2305.59 1209.26h-98.61l44.21-208.88h99.58l-45.18 208.88zm57.81-272.521c0 7.449-1.54 13.926-4.62 19.431-3.07 5.506-7.12 10.202-12.14 14.088-5.02 3.886-10.77 6.801-17.24 8.744a68.987 68.987 0 01-19.92 2.914c-12.95 0-23.8-3.076-32.55-9.229-8.74-6.154-13.11-15.869-13.11-29.147 0-7.124 1.45-13.52 4.37-19.188 2.91-5.667 6.88-10.363 11.9-14.087 5.02-3.724 10.85-6.558 17.49-8.501 6.64-1.943 13.52-2.915 20.64-2.915 12.63 0 23.32 3.077 32.06 9.23 8.75 6.153 13.12 15.706 13.12 28.66zM2376.52 1000.38h37.4l4.37-19.921c4.21-19.431 10.93-35.866 20.16-49.306 9.23-13.44 20.4-24.37 33.52-32.79 13.12-8.42 27.69-14.492 43.72-18.216 16.03-3.724 32.95-5.586 50.76-5.586 15.87 0 31.01 1.457 45.42 4.371 14.41 2.915 29.88 7.611 46.39 14.088l-15.54 48.091c-10.36-4.534-20.65-8.177-30.85-10.93-10.2-2.752-21.13-4.129-32.79-4.129-6.15 0-12.3.486-18.46 1.458-6.15.971-11.82 2.833-17 5.586s-9.71 6.639-13.6 11.659c-3.89 5.019-6.8 11.577-8.74 19.673l-7.78 35.952h160.31l-44.69 208.88h-99.1l37.4-176.34h-60.72l-37.89 176.34h-98.61l36.92-176.34h-37.4l6.8-32.54z"/><path d="M2376.52 1000.38h37.4l4.37-19.921c4.21-19.431 10.93-35.866 20.16-49.306 9.23-13.44 20.4-24.37 33.52-32.79 13.12-8.42 27.69-14.492 43.72-18.216 16.03-3.724 32.95-5.586 50.76-5.586 15.87 0 31.01 1.457 45.42 4.371 14.41 2.915 29.88 7.611 46.39 14.088l-15.54 48.091c-10.36-4.534-20.65-8.177-30.85-10.93-10.2-2.752-21.13-4.129-32.79-4.129-6.15 0-12.3.486-18.46 1.458-6.15.971-11.82 2.833-17 5.586s-9.71 6.639-13.6 11.659c-3.89 5.019-6.8 11.577-8.74 19.673l-7.78 35.952h160.31l-44.69 208.88h-99.1l37.4-176.34h-60.72l-37.89 176.34h-98.61l36.92-176.34h-37.4l6.8-32.54zM2783.11 1111.62c-1.3 7.12-2.19 13.92-2.68 20.4-.48 6.48-.72 12.31-.72 17.49 0 2.91.16 6.15.48 9.71.33 3.57 1.05 6.89 2.19 9.96 1.13 3.08 2.75 5.67 4.86 7.77 2.1 2.11 5.1 3.16 8.98 3.16 2.92 0 6.24-.97 9.96-2.91 3.73-1.95 7.45-4.7 11.17-8.26 3.73-3.56 7.29-7.94 10.69-13.12 3.4-5.18 6.07-11.01 8.02-17.48h79.66l-12.63 51.97c-6.47 4.21-13.92 7.78-22.34 10.69-8.42 2.91-17.33 5.26-26.72 7.04a277.48 277.48 0 01-28.66 3.89c-9.72.81-18.95 1.21-27.69 1.21-16.19 0-31.25-1.45-45.18-4.37-13.92-2.91-26.07-7.93-36.43-15.06-10.36-7.12-18.54-16.59-24.53-28.41-5.99-11.82-8.99-26.48-8.99-43.97 0-15.87 2.51-31.41 7.53-46.63 5.02-15.22 13.44-28.74 25.26-40.56 11.82-11.82 27.69-21.3 47.61-28.42 19.91-7.126 44.77-10.688 74.56-10.688 32.39 0 56.76 5.018 73.11 15.058 16.36 10.04 24.53 25.75 24.53 47.12 0 8.74-1.29 18.22-3.88 28.42-2.59 10.2-6.48 18.86-11.66 25.99h-136.5zm64.61-57.81c0-10.04-1.62-16.84-4.86-20.4-3.24-3.56-7.13-5.34-11.66-5.34-5.18 0-9.96 1.7-14.33 5.09-4.37 3.41-8.34 7.94-11.9 13.61-3.56 5.66-6.8 12.14-9.72 19.43-2.91 7.28-5.34 14.98-7.28 23.07h55.37c.65-3.88 1.3-7.93 1.95-12.14.64-3.56 1.21-7.45 1.7-11.66.48-4.21.73-8.1.73-11.66z"/><path d="M2783.11 1111.62c-1.3 7.12-2.19 13.92-2.68 20.4-.48 6.48-.72 12.31-.72 17.49 0 2.91.16 6.15.48 9.71.33 3.57 1.05 6.89 2.19 9.96 1.13 3.08 2.75 5.67 4.86 7.77 2.1 2.11 5.1 3.16 8.98 3.16 2.92 0 6.24-.97 9.96-2.91 3.73-1.95 7.45-4.7 11.17-8.26 3.73-3.56 7.29-7.94 10.69-13.12 3.4-5.18 6.07-11.01 8.02-17.48h79.66l-12.63 51.97c-6.47 4.21-13.92 7.78-22.34 10.69-8.42 2.91-17.33 5.26-26.72 7.04a277.48 277.48 0 01-28.66 3.89c-9.72.81-18.95 1.21-27.69 1.21-16.19 0-31.25-1.45-45.18-4.37-13.92-2.91-26.07-7.93-36.43-15.06-10.36-7.12-18.54-16.59-24.53-28.41-5.99-11.82-8.99-26.48-8.99-43.97 0-15.87 2.51-31.41 7.53-46.63 5.02-15.22 13.44-28.74 25.26-40.56 11.82-11.82 27.69-21.3 47.61-28.42 19.91-7.126 44.77-10.688 74.56-10.688 32.39 0 56.76 5.018 73.11 15.058 16.36 10.04 24.53 25.75 24.53 47.12 0 8.74-1.29 18.22-3.88 28.42-2.59 10.2-6.48 18.86-11.66 25.99h-136.5zm64.61-57.81c0-10.04-1.62-16.84-4.86-20.4-3.24-3.56-7.13-5.34-11.66-5.34-5.18 0-9.96 1.7-14.33 5.09-4.37 3.41-8.34 7.94-11.9 13.61-3.56 5.66-6.8 12.14-9.72 19.43-2.91 7.28-5.34 14.98-7.28 23.07h55.37c.65-3.88 1.3-7.93 1.95-12.14.64-3.56 1.21-7.45 1.7-11.66.48-4.21.73-8.1.73-11.66zM3145.01 882.819h99.58l-69.46 326.441h-78.7l-8.74-31.09h-3.4c-1.95 2.91-4.94 6.39-8.99 10.44s-9.15 7.94-15.3 11.66c-6.16 3.73-13.44 6.8-21.86 9.23-8.42 2.43-18.14 3.64-29.15 3.64-11.33 0-20.97-1.7-28.9-5.1-7.94-3.4-14.41-8.01-19.43-13.84s-8.67-12.87-10.93-21.13c-2.27-8.26-3.4-17.25-3.4-26.96 0-4.21.32-10.93.97-20.16.65-9.23 2.18-19.43 4.61-30.61 2.43-11.17 5.99-22.67 10.69-34.49 4.7-11.82 11.01-22.58 18.95-32.3 7.93-9.71 17.73-17.73 29.38-24.05 11.66-6.31 25.75-9.468 42.27-9.468 5.18 0 10.68.486 16.51 1.457a61.402 61.402 0 0116.76 5.341c5.35 2.59 10.12 6.32 14.33 11.18 4.21 4.85 7.29 11.17 9.23 18.94h3.4l31.58-149.131zm-59.27 159.821c-7.77 0-14.25 4.29-19.43 12.87-5.18 8.58-9.39 18.54-12.63 29.88-3.24 11.33-5.58 22.67-7.04 34-1.46 11.34-2.19 19.75-2.19 25.26 0 6.48.97 11.9 2.92 16.27 1.94 4.38 5.66 6.56 11.17 6.56 3.24 0 6.4-.73 9.47-2.18a48.73 48.73 0 008.75-5.35c2.75-2.1 5.1-4.29 7.04-6.56 1.94-2.26 3.56-4.21 4.86-5.82l18.94-88.42c-2.26-3.56-5.26-7.2-8.98-10.93-3.73-3.72-8.02-5.58-12.88-5.58z"/><path d="M3145.01 882.819h99.58l-69.46 326.441h-78.7l-8.74-31.09h-3.4c-1.95 2.91-4.94 6.39-8.99 10.44s-9.15 7.94-15.3 11.66c-6.16 3.73-13.44 6.8-21.86 9.23-8.42 2.43-18.14 3.64-29.15 3.64-11.33 0-20.97-1.7-28.9-5.1-7.94-3.4-14.41-8.01-19.43-13.84s-8.67-12.87-10.93-21.13c-2.27-8.26-3.4-17.25-3.4-26.96 0-4.21.32-10.93.97-20.16.65-9.23 2.18-19.43 4.61-30.61 2.43-11.17 5.99-22.67 10.69-34.49 4.7-11.82 11.01-22.58 18.95-32.3 7.93-9.71 17.73-17.73 29.38-24.05 11.66-6.31 25.75-9.468 42.27-9.468 5.18 0 10.68.486 16.51 1.457a61.402 61.402 0 0116.76 5.341c5.35 2.59 10.12 6.32 14.33 11.18 4.21 4.85 7.29 11.17 9.23 18.94h3.4l31.58-149.131zm-59.27 159.821c-7.77 0-14.25 4.29-19.43 12.87-5.18 8.58-9.39 18.54-12.63 29.88-3.24 11.33-5.58 22.67-7.04 34-1.46 11.34-2.19 19.75-2.19 25.26 0 6.48.97 11.9 2.92 16.27 1.94 4.38 5.66 6.56 11.17 6.56 3.24 0 6.4-.73 9.47-2.18a48.73 48.73 0 008.75-5.35c2.75-2.1 5.1-4.29 7.04-6.56 1.94-2.26 3.56-4.21 4.86-5.82l18.94-88.42c-2.26-3.56-5.26-7.2-8.98-10.93-3.73-3.72-8.02-5.58-12.88-5.58z"/></g><g fill="#ce3240" fill-rule="nonzero"><path d="M709.786 1093.69c-1.619 7.12-2.914 13.28-3.886 18.46-.971 5.18-1.457 10.04-1.457 14.57 0 11.34 3.967 20.4 11.901 27.2 7.935 6.81 19.674 10.2 35.219 10.2 11.335 0 20.645-1.94 27.932-5.82 7.286-3.89 13.278-9.07 17.973-15.55 4.696-6.48 8.42-13.92 11.173-22.34s5.101-17.33 7.044-26.72l41.291-198.197h44.205l-42.262 199.167c-3.239 15.54-7.935 30.12-14.088 43.72-6.153 13.6-14.978 25.58-26.474 35.95-11.497 10.36-26.313 18.54-44.449 24.53-18.135 5.99-40.643 8.99-67.522 8.99-37.242 0-64.77-6.08-82.581-18.22-17.812-12.15-26.718-30.85-26.718-56.11 0-11.33 1.458-25.74 4.372-43.23 2.915-17.49 6.639-36.43 11.173-56.84l29.632-137.957h110.27l-42.748 198.197z"/><path d="M709.786 1093.69c-1.619 7.12-2.914 13.28-3.886 18.46-.971 5.18-1.457 10.04-1.457 14.57 0 11.34 3.967 20.4 11.901 27.2 7.935 6.81 19.674 10.2 35.219 10.2 11.335 0 20.645-1.94 27.932-5.82 7.286-3.89 13.278-9.07 17.973-15.55 4.696-6.48 8.42-13.92 11.173-22.34s5.101-17.33 7.044-26.72l41.291-198.197h44.205l-42.262 199.167c-3.239 15.54-7.935 30.12-14.088 43.72-6.153 13.6-14.978 25.58-26.474 35.95-11.497 10.36-26.313 18.54-44.449 24.53-18.135 5.99-40.643 8.99-67.522 8.99-37.242 0-64.77-6.08-82.581-18.22-17.812-12.15-26.718-30.85-26.718-56.11 0-11.33 1.458-25.74 4.372-43.23 2.915-17.49 6.639-36.43 11.173-56.84l29.632-137.957h110.27l-42.748 198.197zM1013.88 1026.17c6.8-6.48 14.41-12.47 22.83-17.98 7.45-4.53 16.19-8.742 26.23-12.628 10.04-3.886 21.21-5.829 33.52-5.829 16.84 0 30.77 4.291 41.78 12.877 11.01 8.58 16.51 20.32 16.51 35.21 0 4.21-.48 9.31-1.45 15.31-.97 5.99-2.11 12.22-3.4 18.7-1.3 6.48-2.67 13.03-4.13 19.67-1.46 6.64-2.67 12.55-3.65 17.73l-20.4 94.73h-98.61l26.72-126.79c.64-4.21 1.45-8.5 2.43-12.87.97-4.37 1.45-8.34 1.45-11.9 0-4.86-1.21-8.83-3.64-11.9-2.43-3.08-6.07-4.62-10.93-4.62-5.83 0-11.42 2.11-16.76 6.32-5.34 4.21-9.47 7.77-12.39 10.68l-32.057 151.08h-99.098l44.206-208.884h79.179l8.75 31.094h2.91z"/><path d="M1013.88 1026.17c6.8-6.48 14.41-12.47 22.83-17.98 7.45-4.53 16.19-8.742 26.23-12.628 10.04-3.886 21.21-5.829 33.52-5.829 16.84 0 30.77 4.291 41.78 12.877 11.01 8.58 16.51 20.32 16.51 35.21 0 4.21-.48 9.31-1.45 15.31-.97 5.99-2.11 12.22-3.4 18.7-1.3 6.48-2.67 13.03-4.13 19.67-1.46 6.64-2.67 12.55-3.65 17.73l-20.4 94.73h-98.61l26.72-126.79c.64-4.21 1.45-8.5 2.43-12.87.97-4.37 1.45-8.34 1.45-11.9 0-4.86-1.21-8.83-3.64-11.9-2.43-3.08-6.07-4.62-10.93-4.62-5.83 0-11.42 2.11-16.76 6.32-5.34 4.21-9.47 7.77-12.39 10.68l-32.057 151.08h-99.098l44.206-208.884h79.179l8.75 31.094h2.91zM1317.49 1056.28c.32-1.62.64-3.23.97-4.85.32-1.62.48-3.4.48-5.35 0-5.83-1.05-11.25-3.15-16.27-2.11-5.02-6.24-7.53-12.39-7.53-5.51 0-11.01 2.35-16.52 7.04-5.5 4.7-8.25 10.93-8.25 18.71 0 5.18 1.37 9.31 4.13 12.38 2.75 3.08 6.39 5.59 10.92 7.53 4.54 1.94 9.64 3.56 15.31 4.86 5.66 1.3 11.25 2.59 16.76 3.89 7.77 1.94 15.14 4.29 22.1 7.04 6.96 2.75 13.2 6.4 18.7 10.93 5.51 4.53 9.88 10.12 13.12 16.76 3.23 6.64 4.85 14.82 4.85 24.53 0 13.6-3.15 25.02-9.47 34.25-6.31 9.23-15.06 16.68-26.23 22.34-11.17 5.67-24.29 9.64-39.35 11.9-15.06 2.27-31.17 3.41-48.33 3.41-26.23 0-47.93-1.95-65.09-5.83-17.17-3.89-29.15-7.62-35.95-11.18l10.2-48.57h65.58c-.33 1.61-.49 3.15-.49 4.61v4.62c0 7.44 1.7 13.35 5.1 17.73 3.4 4.37 9.31 6.55 17.73 6.55 9.4 0 16.12-2.67 20.16-8.01 4.05-5.35 6.07-10.28 6.07-14.82 0-4.53-1.69-8.5-5.09-11.9-3.41-3.4-7.7-6.31-12.88-8.74-5.18-2.43-10.93-4.54-17.24-6.32-6.32-1.78-12.39-3.48-18.22-5.1-4.21-.97-8.99-2.59-14.33-4.86-5.34-2.26-10.44-5.5-15.3-9.71-4.86-4.21-8.91-9.64-12.15-16.27-3.23-6.64-4.85-14.98-4.85-25.02 0-14.25 3.48-26.15 10.44-35.71 6.96-9.55 16.03-17.24 27.2-23.07 11.18-5.83 23.81-10.04 37.89-12.631a234.57 234.57 0 0142.51-3.886c17.81 0 34.65 1.619 50.52 4.857 15.87 3.239 28.82 7.45 38.86 12.63l-11.17 49.06h-63.15z"/><path d="M1317.49 1056.28c.32-1.62.64-3.23.97-4.85.32-1.62.48-3.4.48-5.35 0-5.83-1.05-11.25-3.15-16.27-2.11-5.02-6.24-7.53-12.39-7.53-5.51 0-11.01 2.35-16.52 7.04-5.5 4.7-8.25 10.93-8.25 18.71 0 5.18 1.37 9.31 4.13 12.38 2.75 3.08 6.39 5.59 10.92 7.53 4.54 1.94 9.64 3.56 15.31 4.86 5.66 1.3 11.25 2.59 16.76 3.89 7.77 1.94 15.14 4.29 22.1 7.04 6.96 2.75 13.2 6.4 18.7 10.93 5.51 4.53 9.88 10.12 13.12 16.76 3.23 6.64 4.85 14.82 4.85 24.53 0 13.6-3.15 25.02-9.47 34.25-6.31 9.23-15.06 16.68-26.23 22.34-11.17 5.67-24.29 9.64-39.35 11.9-15.06 2.27-31.17 3.41-48.33 3.41-26.23 0-47.93-1.95-65.09-5.83-17.17-3.89-29.15-7.62-35.95-11.18l10.2-48.57h65.58c-.33 1.61-.49 3.15-.49 4.61v4.62c0 7.44 1.7 13.35 5.1 17.73 3.4 4.37 9.31 6.55 17.73 6.55 9.4 0 16.12-2.67 20.16-8.01 4.05-5.35 6.07-10.28 6.07-14.82 0-4.53-1.69-8.5-5.09-11.9-3.41-3.4-7.7-6.31-12.88-8.74-5.18-2.43-10.93-4.54-17.24-6.32-6.32-1.78-12.39-3.48-18.22-5.1-4.21-.97-8.99-2.59-14.33-4.86-5.34-2.26-10.44-5.5-15.3-9.71-4.86-4.21-8.91-9.64-12.15-16.27-3.23-6.64-4.85-14.98-4.85-25.02 0-14.25 3.48-26.15 10.44-35.71 6.96-9.55 16.03-17.24 27.2-23.07 11.18-5.83 23.81-10.04 37.89-12.631a234.57 234.57 0 0142.51-3.886c17.81 0 34.65 1.619 50.52 4.857 15.87 3.239 28.82 7.45 38.86 12.63l-11.17 49.06h-63.15zM1481.68 1285.57h-99.1l61.21-290.494h79.18l8.74 31.094h2.92c11.66-12.31 24.69-21.14 39.1-26.479 14.41-5.343 28.58-8.015 42.51-8.015 11.33 0 20.81 1.7 28.41 5.1 7.62 3.404 13.69 8.014 18.22 13.844 4.54 5.83 7.77 12.79 9.72 20.89 1.94 8.1 2.91 16.68 2.91 25.75 0 4.53-.32 11.33-.97 20.4-.65 9.06-2.11 19.19-4.37 30.36-2.27 11.17-5.51 22.67-9.72 34.49-4.21 11.82-9.79 22.59-16.76 32.3-6.96 9.72-15.7 17.65-26.23 23.81-10.52 6.15-23.07 9.23-37.64 9.23-8.1 0-15.95-.98-23.56-2.92-7.62-1.94-14.5-4.53-20.65-7.77-6.15-3.24-11.58-7.05-16.27-11.42-4.7-4.37-8.18-8.82-10.45-13.36h-2.91l-24.29 113.19zm51.49-124.84c7.77 0 14.25-4.13 19.43-12.39 5.18-8.26 9.39-17.98 12.63-29.15 3.24-11.17 5.59-22.34 7.05-33.52 1.45-11.17 2.18-19.51 2.18-25.01 0-6.48-1.05-11.82-3.16-16.04-2.1-4.21-5.91-6.31-11.41-6.31-6.15 0-11.98 2.19-17.49 6.56-5.51 4.37-9.55 8.18-12.14 11.41l-18.95 88.9c2.59 3.56 5.67 7.04 9.23 10.44 3.56 3.4 7.77 5.11 12.63 5.11z"/><path d="M1481.68 1285.57h-99.1l61.21-290.494h79.18l8.74 31.094h2.92c11.66-12.31 24.69-21.14 39.1-26.479 14.41-5.343 28.58-8.015 42.51-8.015 11.33 0 20.81 1.7 28.41 5.1 7.62 3.404 13.69 8.014 18.22 13.844 4.54 5.83 7.77 12.79 9.72 20.89 1.94 8.1 2.91 16.68 2.91 25.75 0 4.53-.32 11.33-.97 20.4-.65 9.06-2.11 19.19-4.37 30.36-2.27 11.17-5.51 22.67-9.72 34.49-4.21 11.82-9.79 22.59-16.76 32.3-6.96 9.72-15.7 17.65-26.23 23.81-10.52 6.15-23.07 9.23-37.64 9.23-8.1 0-15.95-.98-23.56-2.92-7.62-1.94-14.5-4.53-20.65-7.77-6.15-3.24-11.58-7.05-16.27-11.42-4.7-4.37-8.18-8.82-10.45-13.36h-2.91l-24.29 113.19zm51.49-124.84c7.77 0 14.25-4.13 19.43-12.39 5.18-8.26 9.39-17.98 12.63-29.15 3.24-11.17 5.59-22.34 7.05-33.52 1.45-11.17 2.18-19.51 2.18-25.01 0-6.48-1.05-11.82-3.16-16.04-2.1-4.21-5.91-6.31-11.41-6.31-6.15 0-11.98 2.19-17.49 6.56-5.51 4.37-9.55 8.18-12.14 11.41l-18.95 88.9c2.59 3.56 5.67 7.04 9.23 10.44 3.56 3.4 7.77 5.11 12.63 5.11zM1794.52 1106.32c-1.3 7.12-2.19 13.92-2.68 20.4-.48 6.48-.72 12.31-.72 17.49 0 2.91.16 6.15.48 9.71.32 3.57 1.05 6.89 2.19 9.96 1.13 3.08 2.75 5.67 4.85 7.77 2.11 2.11 5.11 3.16 8.99 3.16 2.92 0 6.24-.97 9.96-2.91 3.73-1.95 7.45-4.7 11.17-8.26 3.73-3.56 7.29-7.94 10.69-13.12 3.4-5.18 6.07-11.01 8.02-17.48h79.66l-12.63 51.97c-6.47 4.21-13.92 7.78-22.34 10.69-8.42 2.92-17.33 5.26-26.72 7.04a275.14 275.14 0 01-28.66 3.89c-9.72.81-18.95 1.22-27.69 1.22-16.19 0-31.25-1.46-45.18-4.38-13.92-2.91-26.07-7.93-36.43-15.06-10.36-7.12-18.54-16.59-24.53-28.41-5.99-11.82-8.99-26.48-8.99-43.97 0-15.87 2.51-31.41 7.53-46.63 5.02-15.22 13.44-28.74 25.26-40.56 11.82-11.82 27.69-21.3 47.61-28.42 19.91-7.125 44.77-10.687 74.56-10.687 32.39 0 56.76 5.019 73.11 15.057 16.36 10.04 24.53 25.75 24.53 47.12 0 8.75-1.29 18.22-3.88 28.42-2.59 10.2-6.48 18.86-11.66 25.99h-136.5zm64.6-57.81c0-10.04-1.61-16.84-4.85-20.4-3.24-3.56-7.13-5.35-11.66-5.35-5.18 0-9.96 1.7-14.33 5.11-4.38 3.4-8.34 7.93-11.9 13.6-3.57 5.66-6.8 12.14-9.72 19.43-2.91 7.28-5.34 14.98-7.29 23.07h55.38c.65-3.88 1.3-7.93 1.94-12.14.65-3.56 1.22-7.45 1.7-11.66.49-4.21.73-8.1.73-11.66z"/><path d="M1794.52 1106.32c-1.3 7.12-2.19 13.92-2.68 20.4-.48 6.48-.72 12.31-.72 17.49 0 2.91.16 6.15.48 9.71.32 3.57 1.05 6.89 2.19 9.96 1.13 3.08 2.75 5.67 4.85 7.77 2.11 2.11 5.11 3.16 8.99 3.16 2.92 0 6.24-.97 9.96-2.91 3.73-1.95 7.45-4.7 11.17-8.26 3.73-3.56 7.29-7.94 10.69-13.12 3.4-5.18 6.07-11.01 8.02-17.48h79.66l-12.63 51.97c-6.47 4.21-13.92 7.78-22.34 10.69-8.42 2.92-17.33 5.26-26.72 7.04a275.14 275.14 0 01-28.66 3.89c-9.72.81-18.95 1.22-27.69 1.22-16.19 0-31.25-1.46-45.18-4.38-13.92-2.91-26.07-7.93-36.43-15.06-10.36-7.12-18.54-16.59-24.53-28.41-5.99-11.82-8.99-26.48-8.99-43.97 0-15.87 2.51-31.41 7.53-46.63 5.02-15.22 13.44-28.74 25.26-40.56 11.82-11.82 27.69-21.3 47.61-28.42 19.91-7.125 44.77-10.687 74.56-10.687 32.39 0 56.76 5.019 73.11 15.057 16.36 10.04 24.53 25.75 24.53 47.12 0 8.75-1.29 18.22-3.88 28.42-2.59 10.2-6.48 18.86-11.66 25.99h-136.5zm64.6-57.81c0-10.04-1.61-16.84-4.85-20.4-3.24-3.56-7.13-5.35-11.66-5.35-5.18 0-9.96 1.7-14.33 5.11-4.38 3.4-8.34 7.93-11.9 13.6-3.57 5.66-6.8 12.14-9.72 19.43-2.91 7.28-5.34 14.98-7.29 23.07h55.38c.65-3.88 1.3-7.93 1.94-12.14.65-3.56 1.22-7.45 1.7-11.66.49-4.21.73-8.1.73-11.66zM2170.02 1192.3c-13.6 5.51-27.93 9.47-42.99 11.9-15.06 2.43-32.14 3.65-51.25 3.65-16.84 0-32.3-1.71-46.39-5.11-14.09-3.4-26.31-8.82-36.68-16.27-10.36-7.45-18.46-17.08-24.29-28.9-5.83-11.82-8.74-26.15-8.74-42.99 0-17.49 2.99-33.76 8.99-48.82 5.99-15.06 15.06-28.26 27.2-39.59 12.14-11.34 27.61-20.24 46.39-26.722 18.78-6.477 41.13-9.715 67.04-9.715 21.05 0 39.34 1.7 54.89 5.1 15.54 3.401 28.34 11.097 38.38 23.077l-13.61 62.18h-66.06c.32-5.51.65-10.37.97-14.58.32-4.21.49-8.9.49-14.08 0-10.37-1.14-17.74-3.41-22.11-2.26-4.37-5.99-6.56-11.17-6.56-9.06 0-17 4.46-23.8 13.36-6.8 8.91-12.39 19.6-16.76 32.06-4.37 12.47-7.61 25.59-9.71 39.35-2.11 13.77-3.16 25.51-3.16 35.22 0 3.56.16 7.21.48 10.93.33 3.72 1.06 7.21 2.19 10.44 1.13 3.24 2.67 5.83 4.61 7.78 1.95 1.94 4.7 2.91 8.26 2.91 3.24 0 6.97-.97 11.18-2.91 4.21-1.95 8.25-4.94 12.14-8.99 3.89-4.05 7.61-9.31 11.17-15.79 3.56-6.47 6.32-14.25 8.26-23.31h69.47l-14.09 68.49z"/><path d="M2170.02 1192.3c-13.6 5.51-27.93 9.47-42.99 11.9-15.06 2.43-32.14 3.65-51.25 3.65-16.84 0-32.3-1.71-46.39-5.11-14.09-3.4-26.31-8.82-36.68-16.27-10.36-7.45-18.46-17.08-24.29-28.9-5.83-11.82-8.74-26.15-8.74-42.99 0-17.49 2.99-33.76 8.99-48.82 5.99-15.06 15.06-28.26 27.2-39.59 12.14-11.34 27.61-20.24 46.39-26.722 18.78-6.477 41.13-9.715 67.04-9.715 21.05 0 39.34 1.7 54.89 5.1 15.54 3.401 28.34 11.097 38.38 23.077l-13.61 62.18h-66.06c.32-5.51.65-10.37.97-14.58.32-4.21.49-8.9.49-14.08 0-10.37-1.14-17.74-3.41-22.11-2.26-4.37-5.99-6.56-11.17-6.56-9.06 0-17 4.46-23.8 13.36-6.8 8.91-12.39 19.6-16.76 32.06-4.37 12.47-7.61 25.59-9.71 39.35-2.11 13.77-3.16 25.51-3.16 35.22 0 3.56.16 7.21.48 10.93.33 3.72 1.06 7.21 2.19 10.44 1.13 3.24 2.67 5.83 4.61 7.78 1.95 1.94 4.7 2.91 8.26 2.91 3.24 0 6.97-.97 11.18-2.91 4.21-1.95 8.25-4.94 12.14-8.99 3.89-4.05 7.61-9.31 11.17-15.79 3.56-6.47 6.32-14.25 8.26-23.31h69.47l-14.09 68.49zM2301.18 1203.96h-98.61l44.2-208.884h99.58l-45.17 208.884zm57.8-272.52c0 7.449-1.53 13.926-4.61 19.431-3.08 5.505-7.13 10.201-12.15 14.087-5.02 3.887-10.76 6.801-17.24 8.744a68.988 68.988 0 01-19.92 2.915c-12.95 0-23.8-3.077-32.54-9.23-8.75-6.153-13.12-15.868-13.12-29.146 0-7.125 1.46-13.521 4.37-19.188 2.92-5.667 6.88-10.363 11.9-14.088 5.02-3.724 10.85-6.557 17.49-8.501 6.64-1.943 13.52-2.914 20.65-2.914 12.63 0 23.31 3.076 32.06 9.229 8.74 6.154 13.11 15.707 13.11 28.661z"/><path d="M2301.18 1203.96h-98.61l44.2-208.884h99.58l-45.17 208.884zm57.8-272.52c0 7.449-1.53 13.926-4.61 19.431-3.08 5.505-7.13 10.201-12.15 14.087-5.02 3.887-10.76 6.801-17.24 8.744a68.988 68.988 0 01-19.92 2.915c-12.95 0-23.8-3.077-32.54-9.23-8.75-6.153-13.12-15.868-13.12-29.146 0-7.125 1.46-13.521 4.37-19.188 2.92-5.667 6.88-10.363 11.9-14.088 5.02-3.724 10.85-6.557 17.49-8.501 6.64-1.943 13.52-2.914 20.65-2.914 12.63 0 23.31 3.076 32.06 9.229 8.74 6.154 13.11 15.707 13.11 28.661zM2372.1 995.076h37.4l4.38-19.916c4.21-19.431 10.93-35.867 20.16-49.306 9.22-13.44 20.4-24.37 33.51-32.79 13.12-8.42 27.69-14.492 43.72-18.216 16.03-3.725 32.95-5.587 50.77-5.587 15.87 0 31.01 1.458 45.42 4.372 14.41 2.915 29.87 7.611 46.39 14.088l-15.55 48.091c-10.36-4.534-20.64-8.177-30.84-10.93s-21.13-4.129-32.79-4.129c-6.16 0-12.31.486-18.46 1.457-6.16.972-11.82 2.834-17.01 5.587-5.18 2.752-9.71 6.639-13.6 11.658-3.88 5.02-6.8 11.578-8.74 19.674l-7.77 35.947h160.3l-44.69 208.884h-99.1l37.41-176.34h-60.72l-37.89 176.34h-98.62l36.92-176.34h-37.4l6.8-32.544z"/><path d="M2372.1 995.076h37.4l4.38-19.916c4.21-19.431 10.93-35.867 20.16-49.306 9.22-13.44 20.4-24.37 33.51-32.79 13.12-8.42 27.69-14.492 43.72-18.216 16.03-3.725 32.95-5.587 50.77-5.587 15.87 0 31.01 1.458 45.42 4.372 14.41 2.915 29.87 7.611 46.39 14.088l-15.55 48.091c-10.36-4.534-20.64-8.177-30.84-10.93s-21.13-4.129-32.79-4.129c-6.16 0-12.31.486-18.46 1.457-6.16.972-11.82 2.834-17.01 5.587-5.18 2.752-9.71 6.639-13.6 11.658-3.88 5.02-6.8 11.578-8.74 19.674l-7.77 35.947h160.3l-44.69 208.884h-99.1l37.41-176.34h-60.72l-37.89 176.34h-98.62l36.92-176.34h-37.4l6.8-32.544zM2778.69 1106.32c-1.29 7.12-2.18 13.92-2.67 20.4-.49 6.48-.73 12.31-.73 17.49 0 2.91.16 6.15.49 9.71.32 3.57 1.05 6.89 2.18 9.96 1.14 3.08 2.76 5.67 4.86 7.77 2.11 2.11 5.1 3.16 8.99 3.16 2.91 0 6.23-.97 9.95-2.91 3.73-1.95 7.45-4.7 11.18-8.26 3.72-3.56 7.28-7.94 10.68-13.12 3.41-5.18 6.08-11.01 8.02-17.48h79.67l-12.63 51.97c-6.48 4.21-13.93 7.78-22.35 10.69-8.42 2.92-17.32 5.26-26.72 7.04-9.39 1.79-18.94 3.08-28.66 3.89-9.71.81-18.94 1.22-27.69 1.22-16.19 0-31.25-1.46-45.17-4.38-13.93-2.91-26.07-7.93-36.43-15.06-10.37-7.12-18.55-16.59-24.54-28.41-5.99-11.82-8.98-26.48-8.98-43.97 0-15.87 2.51-31.41 7.53-46.63 5.01-15.22 13.44-28.74 25.26-40.56 11.82-11.82 27.69-21.3 47.6-28.42 19.92-7.125 44.77-10.687 74.57-10.687 32.38 0 56.75 5.019 73.11 15.057 16.35 10.04 24.53 25.75 24.53 47.12 0 8.75-1.3 18.22-3.89 28.42-2.59 10.2-6.47 18.86-11.66 25.99h-136.5zm64.61-57.81c0-10.04-1.62-16.84-4.86-20.4-3.24-3.56-7.12-5.35-11.66-5.35-5.18 0-9.96 1.7-14.33 5.11-4.37 3.4-8.34 7.93-11.9 13.6-3.56 5.66-6.8 12.14-9.71 19.43-2.92 7.28-5.35 14.98-7.29 23.07h55.38c.65-3.88 1.29-7.93 1.94-12.14.65-3.56 1.21-7.45 1.7-11.66s.73-8.1.73-11.66z"/><path d="M2778.69 1106.32c-1.29 7.12-2.18 13.92-2.67 20.4-.49 6.48-.73 12.31-.73 17.49 0 2.91.16 6.15.49 9.71.32 3.57 1.05 6.89 2.18 9.96 1.14 3.08 2.76 5.67 4.86 7.77 2.11 2.11 5.1 3.16 8.99 3.16 2.91 0 6.23-.97 9.95-2.91 3.73-1.95 7.45-4.7 11.18-8.26 3.72-3.56 7.28-7.94 10.68-13.12 3.41-5.18 6.08-11.01 8.02-17.48h79.67l-12.63 51.97c-6.48 4.21-13.93 7.78-22.35 10.69-8.42 2.92-17.32 5.26-26.72 7.04-9.39 1.79-18.94 3.08-28.66 3.89-9.71.81-18.94 1.22-27.69 1.22-16.19 0-31.25-1.46-45.17-4.38-13.93-2.91-26.07-7.93-36.43-15.06-10.37-7.12-18.55-16.59-24.54-28.41-5.99-11.82-8.98-26.48-8.98-43.97 0-15.87 2.51-31.41 7.53-46.63 5.01-15.22 13.44-28.74 25.26-40.56 11.82-11.82 27.69-21.3 47.6-28.42 19.92-7.125 44.77-10.687 74.57-10.687 32.38 0 56.75 5.019 73.11 15.057 16.35 10.04 24.53 25.75 24.53 47.12 0 8.75-1.3 18.22-3.89 28.42-2.59 10.2-6.47 18.86-11.66 25.99h-136.5zm64.61-57.81c0-10.04-1.62-16.84-4.86-20.4-3.24-3.56-7.12-5.35-11.66-5.35-5.18 0-9.96 1.7-14.33 5.11-4.37 3.4-8.34 7.93-11.9 13.6-3.56 5.66-6.8 12.14-9.71 19.43-2.92 7.28-5.35 14.98-7.29 23.07h55.38c.65-3.88 1.29-7.93 1.94-12.14.65-3.56 1.21-7.45 1.7-11.66s.73-8.1.73-11.66zM3140.59 877.519h99.59l-69.47 326.441h-78.7l-8.74-31.09h-3.4c-1.94 2.91-4.94 6.4-8.99 10.44-4.04 4.05-9.15 7.94-15.3 11.66-6.15 3.73-13.44 6.8-21.86 9.23-8.42 2.43-18.13 3.65-29.14 3.65-11.34 0-20.97-1.71-28.91-5.11-7.93-3.4-14.41-8.01-19.43-13.84s-8.66-12.87-10.93-21.13c-2.27-8.26-3.4-17.25-3.4-26.96 0-4.21.32-10.93.97-20.16.65-9.23 2.19-19.43 4.62-30.6 2.43-11.18 5.99-22.67 10.68-34.49 4.7-11.83 11.02-22.59 18.95-32.31 7.93-9.71 17.73-17.73 29.39-24.045 11.66-6.315 25.74-9.472 42.26-9.472 5.18 0 10.69.486 16.52 1.457a61.414 61.414 0 0116.76 5.344c5.34 2.59 10.12 6.316 14.33 11.176 4.21 4.85 7.28 11.17 9.23 18.94h3.4l31.57-149.131zm-59.26 159.821c-7.77 0-14.25 4.29-19.43 12.87-5.18 8.58-9.39 18.54-12.63 29.88-3.24 11.33-5.59 22.67-7.05 34-1.46 11.33-2.18 19.76-2.18 25.26 0 6.48.97 11.9 2.91 16.27 1.94 4.38 5.67 6.56 11.17 6.56 3.24 0 6.4-.73 9.48-2.18 3.07-1.46 5.99-3.24 8.74-5.35 2.75-2.1 5.1-4.29 7.04-6.55 1.95-2.27 3.57-4.22 4.86-5.83l18.95-88.41c-2.27-3.57-5.26-7.21-8.99-10.94-3.72-3.72-8.02-5.58-12.87-5.58z"/><path d="M3140.59 877.519h99.59l-69.47 326.441h-78.7l-8.74-31.09h-3.4c-1.94 2.91-4.94 6.4-8.99 10.44-4.04 4.05-9.15 7.94-15.3 11.66-6.15 3.73-13.44 6.8-21.86 9.23-8.42 2.43-18.13 3.65-29.14 3.65-11.34 0-20.97-1.71-28.91-5.11-7.93-3.4-14.41-8.01-19.43-13.84s-8.66-12.87-10.93-21.13c-2.27-8.26-3.4-17.25-3.4-26.96 0-4.21.32-10.93.97-20.16.65-9.23 2.19-19.43 4.62-30.6 2.43-11.18 5.99-22.67 10.68-34.49 4.7-11.83 11.02-22.59 18.95-32.31 7.93-9.71 17.73-17.73 29.39-24.045 11.66-6.315 25.74-9.472 42.26-9.472 5.18 0 10.69.486 16.52 1.457a61.414 61.414 0 0116.76 5.344c5.34 2.59 10.12 6.316 14.33 11.176 4.21 4.85 7.28 11.17 9.23 18.94h3.4l31.57-149.131zm-59.26 159.821c-7.77 0-14.25 4.29-19.43 12.87-5.18 8.58-9.39 18.54-12.63 29.88-3.24 11.33-5.59 22.67-7.05 34-1.46 11.33-2.18 19.76-2.18 25.26 0 6.48.97 11.9 2.91 16.27 1.94 4.38 5.67 6.56 11.17 6.56 3.24 0 6.4-.73 9.48-2.18 3.07-1.46 5.99-3.24 8.74-5.35 2.75-2.1 5.1-4.29 7.04-6.55 1.95-2.27 3.57-4.22 4.86-5.83l18.95-88.41c-2.27-3.57-5.26-7.21-8.99-10.94-3.72-3.72-8.02-5.58-12.87-5.58z"/></g></g></svg>